<?xml version="1.0" encoding="UTF-8" standalone="no"?>
<svg
   xmlns:dc="http://purl.org/dc/elements/1.1/"
   xmlns:cc="http://creativecommons.org/ns#"
   xmlns:rdf="http://www.w3.org/1999/02/22-rdf-syntax-ns#"
   xmlns:svg="http://www.w3.org/2000/svg"
   xmlns="http://www.w3.org/2000/svg"
   xmlns:sodipodi="http://sodipodi.sourceforge.net/DTD/sodipodi-0.dtd"
   xmlns:inkscape="http://www.inkscape.org/namespaces/inkscape"
   width="103.38015mm"
   height="103.38015mm"
   viewBox="0 0 103.38015 103.38015"
   version="1.1"
   id="svg839"
   inkscape:version="1.0.1 (3bc2e813f5, 2020-09-07)"
   sodipodi:docname="favicon.svg">
  <defs
     id="defs833" />
  <sodipodi:namedview
     id="base"
     pagecolor="#ffffff"
     bordercolor="#666666"
     borderopacity="1.0"
     inkscape:pageopacity="0.0"
     inkscape:pageshadow="2"
     inkscape:zoom="1.4"
     inkscape:cx="-164.67298"
     inkscape:cy="261.43298"
     inkscape:document-units="mm"
     inkscape:current-layer="layer1"
     inkscape:document-rotation="0"
     showgrid="false"
     fit-margin-top="0"
     fit-margin-left="2.4"
     fit-margin-right="0"
     fit-margin-bottom="0"
     inkscape:window-width="2400"
     inkscape:window-height="1271"
     inkscape:window-x="2391"
     inkscape:window-y="-9"
     inkscape:window-maximized="1" />
  <metadata
     id="metadata836">
    <rdf:RDF>
      <cc:Work
         rdf:about="">
        <dc:format>image/svg+xml</dc:format>
        <dc:type
           rdf:resource="http://purl.org/dc/dcmitype/StillImage" />
        <dc:title></dc:title>
      </cc:Work>
    </rdf:RDF>
  </metadata>
  <g
     inkscape:label="Layer 1"
     inkscape:groupmode="layer"
     id="layer1"
     transform="translate(-60.259915,-21.637305)">
    <path
       id="path925"
       style="fill:#ee1d23;fill-opacity:1;stroke-width:0.264583"
       d="m 124.61534,124.72247 c -4.5639,-1.31639 -9.40792,-5.98697 -11.64345,-11.22657 -1.10848,-2.59802 -0.9386,-2.75443 0.60474,-0.55678 2.5443,3.62295 6.26821,6.79542 9.51689,8.10762 2.77779,1.122 6.08418,1.05594 6.25763,-0.12501 0.20705,-1.40966 -2.21548,-7.45645 -5.96231,-14.88233 -2.0926,-4.14734 -3.90878,-7.644907 -4.03596,-7.772367 -0.13228,-0.13256 -1.06061,-0.0193 -2.16908,0.26458 -2.88841,0.7398 -9.59464,0.67719 -12.52117,-0.11688 -4.731142,-1.28372 -9.097332,-4.29793 -10.972032,-7.57458 -0.82431,-1.44073 -1.7265,-4.43502 -1.50251,-4.98668 0.0713,-0.17561 0.13903,-0.0986 0.15052,0.17119 0.0477,1.11972 1.97768,4.17969 3.56128,5.64635 2.87655,2.66412 6.911562,4.17904 11.957412,4.48935 3.79193,0.23319 9.90243,-0.74364 9.90207,-1.58297 -8e-5,-0.17157 -0.24496,-0.95611 -0.5442,-1.74341 -0.58926,-1.55038 -1.42688,-4.99466 -1.67871,-6.90292 -0.13987,-1.0598 -0.0421,-0.92024 0.88952,1.27016 1.13187,2.66114 3.05758,6.2924 3.47315,6.54924 0.40801,0.25217 2.61587,-1.16749 4.28264,-2.75376 2.64795,-2.52005 3.85046,-5.88182 3.52569,-9.85649 -0.42156,-5.15931 -3.01522,-9.48987 -6.73865,-11.25133 -1.95547,-0.92509 -4.73989,-1.12835 -6.67092,-0.48696 -2.77067,0.92027 -5.16679,4.06974 -6.86282,9.02051 l -0.8048,2.34926 0.14789,-1.5875 c 0.81596,-8.75888 5.91259,-13.74693 12.87185,-12.59763 6.15309,1.01616 10.7523,6.5465 11.59197,13.93883 0.74685,6.57506 -1.98399,12.10515 -7.63575,15.46279 l -1.82757,1.08574 2.7333,4.350397 c 4.81678,7.66652 7.36625,13.3345 8.46517,18.81977 0.23868,1.19138 0.39493,2.44132 0.34723,2.77765 -0.20634,1.45482 -5.78476,2.54419 -8.70902,1.70073 z M 94.740748,80.490593 c 0,-0.58725 3.9015,-8.1723 7.420912,-14.42725 7.61993,-13.5427 9.27091,-18.18097 9.26798,-26.03749 -0.002,-5.35636 -1.25063,-8.85798 -4.06613,-11.40293 -2.95716,-2.67298 -6.59656,-3.59225 -9.076502,-2.29261 -2.48673,1.30321 -4.87005,4.8906 -5.96255,8.97485 -0.58003,2.16845 -0.80171,6.60461 -0.43422,8.68944 l 0.18656,1.05833 -0.41571,-0.92604 c -0.8337,-1.85715 -1.21242,-4.50001 -1.06161,-7.40833 0.25739,-4.96382 1.56997,-8.30106 4.38146,-11.13988 2.30488,-2.3273 3.95223,-2.98329 7.092572,-2.82432 1.9102,0.0967 2.45112,0.24763 4.46689,1.24649 4.36073,2.16082 7.16348,5.96238 8.19479,11.11513 0.68316,3.4133 0.4185,8.96471 -0.61895,12.98265 -1.7132,6.63512 -3.92663,10.69226 -12.26783,22.4866 -2.109772,2.98317 -4.469252,6.37646 -5.243292,7.54062 -1.58367,2.38186 -1.86437,2.73789 -1.86437,2.36474 z m 27.683012,-40.86941 c -1.31743,-1.56566 -1.13966,-3.84672 0.40079,-5.14293 1.19405,-1.00473 1.68623,-0.88124 2.07901,0.5216 0.18351,0.65545 0.2687,1.67599 0.18931,2.26788 -0.14359,1.0706 -1.30462,3.15499 -1.75735,3.15499 -0.13052,0 -0.54082,-0.36069 -0.91176,-0.80154 z m -3.74622,-15.1897 c -1.21703,-1.21703 -0.56363,-2.79418 1.1576,-2.79418 0.70575,0 0.91649,0.15341 1.29173,0.9403 0.53603,1.12407 0.30482,1.65016 -0.95034,2.16232 -0.78088,0.31863 -0.8955,0.29505 -1.49899,-0.30844 z" />
  </g>
</svg>
