<?xml version="1.0" encoding="UTF-8" standalone="no"?>
<svg
   xmlns:dc="http://purl.org/dc/elements/1.1/"
   xmlns:cc="http://creativecommons.org/ns#"
   xmlns:rdf="http://www.w3.org/1999/02/22-rdf-syntax-ns#"
   xmlns:svg="http://www.w3.org/2000/svg"
   xmlns="http://www.w3.org/2000/svg"
   xmlns:sodipodi="http://sodipodi.sourceforge.net/DTD/sodipodi-0.dtd"
   xmlns:inkscape="http://www.inkscape.org/namespaces/inkscape"
   width="273.12265mm"
   height="103.38015mm"
   viewBox="0 0 273.12265 103.38015"
   version="1.1"
   id="svg8"
   inkscape:version="1.0.1 (3bc2e813f5, 2020-09-07)"
   sodipodi:docname="logo_original.svg"
   inkscape:export-filename="C:\Users\sigurd\Pictures\Symforch_white_bg.png"
   inkscape:export-xdpi="92.998512"
   inkscape:export-ydpi="92.998512">
  <defs
     id="defs2" />
  <sodipodi:namedview
     id="base"
     pagecolor="#ffffff"
     bordercolor="#666666"
     borderopacity="1.0"
     inkscape:pageopacity="0.0"
     inkscape:pageshadow="2"
     inkscape:zoom="0.9899495"
     inkscape:cx="482.40195"
     inkscape:cy="186.88916"
     inkscape:document-units="mm"
     inkscape:current-layer="layer2"
     inkscape:document-rotation="0"
     showgrid="false"
     fit-margin-top="0"
     fit-margin-left="0"
     fit-margin-right="0"
     fit-margin-bottom="0"
     inkscape:window-width="1920"
     inkscape:window-height="1001"
     inkscape:window-x="-9"
     inkscape:window-y="-9"
     inkscape:window-maximized="1" />
  <metadata
     id="metadata5">
    <rdf:RDF>
      <cc:Work
         rdf:about="">
        <dc:format>image/svg+xml</dc:format>
        <dc:type
           rdf:resource="http://purl.org/dc/dcmitype/StillImage" />
        <dc:title />
      </cc:Work>
    </rdf:RDF>
  </metadata>
  <g
     inkscape:groupmode="layer"
     id="layer2"
     inkscape:label="bg">
    <rect
       style="fill:#ffffff;stroke:#ffffff;stroke-width:0"
       id="rect834"
       width="273.12299"
       height="103.38"
       x="5e-07"
       y="5e-07" />
  </g>
  <g
     inkscape:label="Layer 1"
     inkscape:groupmode="layer"
     id="layer1"
     transform="translate(153.35647,40.1236)">
    <path
       id="path1144"
       style="fill:#000000;stroke-width:0.999999"
       transform="matrix(0.26458333,0,0,0.26458333,-156.32652,-46.209015)"
       d="m 212.44727,160.94922 c -7.59916,0.17049 -13.9346,3.10591 -16.5918,8.06055 -3.70341,6.90539 -1.30452,14.68051 6.74414,21.86328 10.40948,9.2896 12.33479,11.39565 13.41797,14.67773 1.51758,4.59832 -0.3578,8.38274 -5.36524,10.82813 -3.2787,1.60118 -4.41769,1.70915 -7.69726,0.72656 -3.98034,-1.19253 -7.94426,-5.16637 -7.9707,-7.99024 C 194.97595,208.2269 194.53314,206.825 194,206 c -0.67555,-1.04515 -0.97304,0.68905 -0.98438,5.7207 l -0.0156,7.22266 3.25,0.99805 c 5.01827,1.54122 16.0507,0.65201 19.91602,-1.60547 5.07641,-2.96478 7.83398,-7.74608 7.83398,-13.58203 0,-6.85264 -2.29091,-11.03553 -9.34961,-17.07422 C 203.14087,177.83335 202,176.48233 202,172.71094 c 0,-5.32157 2.88683,-8.21094 8.20508,-8.21094 5.48641,0 9.66771,2.61784 10.45312,6.54492 0.99419,4.97098 2.3418,3.29135 2.3418,-2.91992 0,-5.78 -0.0505,-5.88511 -3.125,-6.5 -2.00722,-0.40144 -3.98315,-0.62231 -5.89258,-0.67188 -0.51713,-0.0134 -1.02854,-0.0153 -1.53515,-0.004 z m 131.47461,8.70312 c -0.94168,0.34706 -4.86884,7.25339 -10.46876,18.44141 l -9.6875,19.35352 -9.63281,-18.91016 C 308.83461,178.13698 304.05,169.69298 303.5,169.77148 c -0.55,0.0785 -2.64129,10.48057 -4.64844,23.11719 -2.00713,12.63663 -3.96688,23.4877 -4.35351,24.11328 -0.38665,0.62559 -1.66839,1.52732 -2.84961,2.00391 -1.45694,0.58785 0.58532,0.86214 6.35156,0.85156 6.86216,-0.0126 7.97011,-0.20868 5.75,-1.01953 -3.29676,-1.20408 -3.41626,-3.00518 -1.25,-18.83789 0.79015,-5.775 1.46605,-10.95 1.50195,-11.5 0.0359,-0.55 3.76228,6.2 8.28125,15 4.51897,8.8 8.6668,16 9.2168,16 0.55,0 4.67526,-7.2 9.16797,-16 4.73095,-9.26666 8.38527,-15.36875 8.68359,-14.5 1.01238,2.94836 3.81587,27.12257 3.30078,28.46484 -0.75547,1.96875 1.54933,2.5494 9.67969,2.4336 6.46233,-0.092 6.84719,-0.20568 3.91406,-1.14649 -4.08823,-1.31132 -4.37317,-2.28746 -8.25586,-28.20117 -1.644,-10.97238 -3.40832,-20.36926 -3.91992,-20.88086 -0.0358,-0.0358 -0.0857,-0.0407 -0.14843,-0.0176 z M 496.40039,170 c -0.72452,0 -1.30494,7.64229 -1.75586,23.16406 -0.40116,13.80897 -1.09928,23.67891 -1.73047,24.43946 -0.58234,0.70166 -2.03876,1.46805 -3.23633,1.70117 -1.19755,0.23313 2.32227,0.44342 7.82227,0.46875 7.78988,0.0358 9.28549,-0.16023 6.76367,-0.88867 -2.13707,-0.6173 -3.39223,-1.69155 -3.68945,-3.16016 C 499.78438,211.82285 499.08399,185 499.77148,185 c 0.36343,0 8.85271,8.14786 18.86524,18.10742 10.21237,10.15834 18.6775,17.81573 19.2832,17.44141 0.66506,-0.41103 1.12994,-5.34829 1.21094,-12.85742 0.0724,-6.70504 0.40984,-17.34827 0.75,-23.65039 0.6015,-11.14447 0.68764,-11.47744 3.11914,-12.1504 1.375,-0.38055 -1.775,-0.66822 -7,-0.64062 -5.225,0.0276 -8.29452,0.23374 -6.82227,0.45898 1.47226,0.22524 3.1061,0.94476 3.63086,1.59961 0.52478,0.65485 1.26637,8.61641 1.64844,17.69141 l 0.69336,16.5 -18.83398,-18.75 C 505.95703,178.4375 496.99508,170 496.40039,170 Z m 361.26758,0.0215 c -11.11908,0.0396 -17.94141,4.93683 -17.94141,12.87696 0,5.73208 2.92979,9.65029 11.48828,15.36914 8.43594,5.63697 10.57537,8.80263 9.08008,13.43164 -1.22946,3.8061 -6.99118,6.63701 -11.70898,5.75195 C 844.27983,216.64334 840,212.58186 840,209.30469 c 0,-1.36046 -0.43844,-2.15175 -1,-1.80469 -0.55,0.33992 -1,3.057 -1,6.03906 0,5.10114 0.16271,5.45866 2.75,6.0293 1.5125,0.33359 3.2,0.78489 3.75,1.00195 2.37866,0.93867 13.51591,-0.46633 16.18164,-2.04101 6.87401,-4.06058 9.23417,-12.48925 5.46484,-19.51758 -1.01992,-1.90174 -4.05741,-4.91495 -6.75,-6.69531 -12.69809,-8.39609 -12.3971,-8.11429 -12.38086,-11.55664 0.018,-3.81953 0.69806,-5.04614 3.66797,-6.60938 5.32568,-2.80321 14.31641,0.28728 14.31641,4.92188 0,1.06008 0.45,1.92773 1,1.92773 0.55,0 1,-2.20143 1,-4.89258 0,-5.76569 -0.53798,-6.11723 -9.33203,-6.08594 z m -452.66602,0.4785 -17.25,0.39258 c -9.4882,0.21588 -15.92235,0.66668 -14.29687,1.00195 3.94996,0.81471 4.32808,2.56507 4.4375,20.60547 0.12736,20.99615 -0.471,25.1698 -3.77735,26.38281 -1.91631,0.70306 0.45824,0.94057 8.88477,0.88867 6.325,-0.039 10.29452,-0.25524 8.82227,-0.48046 -4.38793,-0.67131 -5.09113,-2.50406 -5.21094,-13.56055 L 386.5,195.5 l 4.41992,-0.31641 c 6.23234,-0.44531 8.81527,0.43228 10.44922,3.55079 1.397,2.66626 1.42563,2.61963 1.77539,-2.91602 0.32382,-5.1254 0.1993,-5.54016 -1.41211,-4.67578 -0.97285,0.52185 -4.79785,0.81473 -8.5,0.65234 L 386.5,191.5 v -8.5 -8.5 l 4,-0.29102 c 6.73172,-0.48954 11.95187,1.03316 12.32227,3.59571 0.53623,3.70963 2.17869,1.3645 2.17968,-3.11328 z m 521.99805,0 -22.07422,0.1582 c -12.14058,0.0866 -22.20364,0.3116 -22.36133,0.5 -0.15767,0.18839 -0.58561,2.29329 -0.95117,4.67774 l -0.66406,4.33398 2.27539,-2.51367 c 1.95599,-2.1613 3.29656,-2.56416 9.54492,-2.86914 l 7.26758,-0.35547 -0.26758,21.50586 -0.26953,21.50586 -2.5,1.26367 c -2.14873,1.08646 -0.88417,1.25107 9,1.17578 7.8405,-0.0597 10.44961,-0.33618 8.19922,-0.86914 -1.81541,-0.42995 -3.61541,-1.09489 -4,-1.47851 C 909.81461,217.15153 909.5,207.3106 909.5,195.66797 V 174.5 l 6,0.3125 c 7.88654,0.41078 9.45872,0.93835 10.50195,3.52539 0.67468,1.6731 0.8848,1.03133 0.9336,-2.83789 z m 46.6582,0 c -5.12185,0 -33.3528,1.15828 -31.60742,1.29688 4.75893,0.37789 4.95604,1.28106 4.84961,22.15234 -0.0548,10.7525 -0.40938,20.65873 -0.78711,22.01367 -0.39844,1.42919 -1.7212,2.75809 -3.15039,3.16406 -1.35494,0.38489 5.18711,0.62691 14.53711,0.53711 l 17,-0.16406 0.14648,-5 c 0.0807,-2.75002 -0.0596,-4.01983 -0.31054,-2.82227 -0.72699,3.46766 -3.01296,4.63612 -9.24024,4.72071 C 956.62289,216.51356 956,215.68974 956,204.37695 V 195 h 4.43555 c 5.8202,0 9.40539,1.44361 10.52734,4.23633 0.81181,2.02049 0.91949,1.88648 0.98828,-1.23633 0.0424,-1.925 0.36089,-4.56336 0.70899,-5.86328 0.57346,-2.14228 0.43856,-2.25927 -1.44727,-1.25 C 970.0686,191.49914 966.17757,192 962.56641,192 H 956 v -9 -9 l 4.75,0.0996 c 6.67179,0.14001 9.55874,1.13341 10.85742,3.73828 1.02032,2.04657 1.17139,1.81462 1.66602,-2.54297 0.29937,-2.63745 0.47245,-4.79492 0.38476,-4.79492 z m -156.30078,0.14062 c -2.70639,0.0266 -8.84492,0.18041 -15.85742,0.40626 -9.35,0.30112 -15.85172,0.63863 -14.44922,0.75 4.76624,0.37847 4.94922,1.24158 4.94922,23.21289 0,21.57692 -0.31858,23.29659 -4.5,24.30273 -1.1,0.26468 5.63113,0.41479 14.95703,0.33398 l 16.95508,-0.14648 0.81641,-3.93359 c 1.08695,-5.23754 0.44832,-6.74806 -1.3086,-3.09571 -1.62181,3.37149 -6.21399,4.88814 -11.91992,3.93555 -5.61582,-0.93755 -6,-1.70921 -6,-12.0293 V 195 l 4.75,0.0996 c 6.97588,0.14639 9.5827,1.13753 10.36328,3.9375 0.565,2.0267 0.70774,2.10825 0.79883,0.46289 0.0609,-1.1 0.39685,-3.73937 0.74805,-5.86523 0.60814,-3.68126 0.53931,-3.81214 -1.44532,-2.75 C 815.06875,191.49814 811.17757,192 807.56641,192 H 801 v -9 -9 l 4.75,0.0996 c 6.68542,0.1403 9.55944,1.13472 10.86914,3.76172 1.0484,2.10288 1.18612,1.92251 1.83203,-2.38477 0.38438,-2.56293 0.55182,-4.73126 0.37305,-4.81836 -0.0447,-0.0218 -0.56467,-0.0264 -1.4668,-0.0176 z m -51.07617,0.4629 c -6.85478,-0.0862 -8.12381,0.14052 -7.65234,1.36914 C 759.18029,173.90954 743.60667,192 741.81836,192 c -1.01529,0 -1.0636,-17.07408 -0.0527,-18.63477 0.40409,-0.62387 1.63438,-1.35798 2.73438,-1.63281 1.1,-0.27482 -2.725,-0.49905 -8.5,-0.49804 -5.775,9.9e-4 -9.15,0.2917 -7.5,0.64453 l 3,0.64062 v 22.46094 22.46094 l -2.5,1.26367 c -2.15234,1.08896 -0.9703,1.24907 8.5,1.14453 6.05,-0.0668 9.875,-0.32922 8.5,-0.58203 -4.63358,-0.8519 -5,-1.84356 -5,-13.53125 v -11.01758 l 4.23438,4.89063 c 8.33643,9.62974 16.31191,17.61425 18.96679,18.99023 1.6154,0.83724 5.4323,1.35994 9.5,1.29883 6.40421,-0.0961 6.59528,-0.1655 3.29883,-1.16992 -2.39649,-0.73023 -7.59834,-5.1354 -16.49805,-13.97461 l -12.99804,-12.91016 9.53125,-9.27148 c 7.0607,-6.86849 10.55925,-9.5425 13.49804,-10.31836 3.70482,-0.97809 3.42364,-1.05389 -4.25195,-1.15039 z m -492.55859,0.008 c -3.25649,0.0508 -3.4573,0.3621 -2.26172,1.23633 1.7513,1.28058 1.63257,1.73838 -2.375,9.25976 -2.31892,4.35216 -5.01175,8.96837 -5.98438,10.25781 l -1.76758,2.34375 -5.66796,-9.72851 c -5.87853,-10.09353 -6.52337,-11.96803 -4.41602,-12.81836 0.6875,-0.27741 -3.025,-0.52302 -8.25,-0.54492 -8.77833,-0.0368 -9.26594,0.0629 -6.42773,1.29883 3.7701,1.64175 17.26885,21.94871 18.65429,28.0625 0.50117,2.21158 0.61199,7.03637 0.2461,10.7207 -0.60251,6.06648 -0.9152,6.78942 -3.31836,7.66992 -1.97972,0.72533 0.26628,0.96661 8.8457,0.94922 7.71964,-0.0157 10.41493,-0.27993 8.19922,-0.80469 -1.81541,-0.42995 -3.61541,-1.09656 -4,-1.48242 C 264.81461,217.1454 264.5,212.47946 264.5,207.16406 V 197.5 l 6.26562,-10.12891 c 6.88259,-11.1268 10.2607,-15.03302 13.56055,-15.67578 1.19521,-0.23281 -1.62496,-0.48369 -6.26758,-0.55859 -1.82579,-0.0295 -3.25044,-0.0423 -4.33593,-0.0254 z M 572,171.23633 c -5.775,-0.0201 -9.37579,0.276 -8.00195,0.6582 3.29807,0.91751 3.7406,3.328 3.875,21.10547 0.1545,20.43515 -0.46087,24.67325 -3.75782,25.88281 -1.92654,0.70679 0.41327,0.95294 8.88477,0.93555 7.71964,-0.0157 10.41493,-0.27993 8.19922,-0.80469 -1.81541,-0.42995 -3.61541,-1.09608 -4,-1.48047 -1.17178,-1.17118 -1.47888,-39.75716 -0.33984,-42.70703 0.59824,-1.54935 2.00073,-2.85803 3.33593,-3.11328 1.26713,-0.24223 -2.42031,-0.45646 -8.19531,-0.47656 z m 54.31445,-1.08594 c -1.08934,-0.002 -2.20435,0.037 -3.3457,0.11523 -8.93327,0.61231 -14.16997,2.92138 -18.93945,8.35352 -4.59105,5.22892 -6.3414,9.91348 -6.3086,16.88086 0.058,12.30798 7.10049,21.06129 19.7793,24.58594 4.93654,1.37233 15.7774,0.26311 20.88281,-2.13672 5.67173,-2.66603 11.85156,-9.44941 13.44141,-14.75586 C 652.47103,201.0345 653,196.64927 653,193.44922 653,179.0589 642.65466,170.17357 626.31445,170.15039 Z m -2.49414,2.95899 c 11.4905,-0.069 19.17218,9.32871 19.14844,23.89062 -0.014,8.60347 -2.28284,14.84788 -6.36328,17.52148 -2.95547,1.93651 -8.20642,3.23263 -11.10547,2.74024 -5.43432,-0.92299 -6.84058,-1.57548 -10.4668,-4.85156 -5.17072,-4.67143 -7.54971,-11.007 -7.47461,-19.91016 0.0985,-11.66989 4.83819,-18.22702 13.91407,-19.25 0.79874,-0.09 1.58162,-0.13604 2.34765,-0.14062 z M 449.64453,170 c -17.43228,0 -28.65858,9.89403 -28.63476,25.23828 0.0192,12.31517 7.382,21.72124 19.49023,24.89649 5.00786,1.31326 15.8315,0.18933 20.83398,-2.16211 5.31467,-2.4982 10.94513,-8.31303 13.14258,-13.57227 1.9686,-4.71155 1.9543,-15.43032 -0.0273,-20.18164 C 470.79084,175.4477 461.28872,170 449.64453,170 Z m -2.85351,3.18164 c 5.7006,0.0459 11.65415,2.82504 15.43945,8.31836 7.13212,10.3503 5.10334,28.60755 -3.73047,33.57422 -1.64969,0.92752 -4.125,1.90303 -5.5,2.16601 -2.36536,0.45239 -3.30046,0.36587 -8.77539,-0.80468 -3.72852,-0.79717 -9.97453,-7.21876 -11.91602,-12.25 -2.55339,-6.61693 -2.29374,-17.34498 0.55469,-22.92188 2.77874,-5.44045 8.22713,-8.12795 13.92774,-8.08203 z m 556.99018,-2.0625 c -7.85499,0.0651 -12.93119,0.40694 -11.2812,0.75977 l 3,0.64062 v 22.46094 22.46094 l -2.5,1.26367 c -2.15233,1.08896 -0.97032,1.24907 8.5,1.14453 6.05,-0.0668 9.875,-0.32922 8.5,-0.58203 -4.454,-0.81889 -5,-2.00828 -5,-10.89063 V 200 h 3.7734 c 3.5722,0 4.1053,0.44798 9.9512,8.36328 7.1455,9.67479 10.3594,11.64736 18.9258,11.61524 l 5.8496,-0.0215 -4,-1.85937 c -4.0719,-1.89226 -7.3919,-5.08725 -15.9551,-15.35547 l -4.8008,-5.75781 2.7735,-2.74219 c 6.3906,-6.31796 7.8902,-11.61954 4.916,-17.3711 -2.5273,-4.88718 -6.4659,-5.88604 -22.6524,-5.75195 z M 1005,174 h 3.9844 c 2.9893,0 4.7998,0.72872 7.25,2.91797 2.9385,2.62542 3.2656,3.47002 3.2656,8.41992 0,4.44612 -0.4646,5.99649 -2.4238,8.08203 -1.9567,2.08266 -3.3554,2.58008 -7.25,2.58008 H 1005 v -11 z m -329.71094,-2.66992 c -5.24209,0.0215 -8.32031,0.16023 -7.28906,0.36523 4.94592,0.98314 5,1.23427 5,23.23633 0,21.66088 -0.31917,23.38813 -4.5,24.36719 -1.1,0.25761 2.95,0.47978 9,0.49414 8.14316,0.0191 10.19133,-0.20852 7.88672,-0.87695 -2.76134,-0.80091 -3.18511,-1.42744 -3.75,-5.54883 C 681.28645,210.81165 681,206.75956 681,204.36133 V 200 l 4.25,0.0625 c 4.14023,0.0606 4.39867,0.26821 10.00391,8.01758 7.32184,10.1226 10.21177,11.9436 18.74609,11.81445 6.00999,-0.0909 6.25296,-0.17693 3.22852,-1.14648 -3.16218,-1.01371 -12.67523,-10.22193 -18.64063,-18.04297 l -2.79492,-3.66406 4.08008,-4.63477 c 6.49823,-7.38238 6.43055,-13.90638 -0.19336,-18.81641 -2.55396,-1.89314 -4.29592,-2.10333 -18.5,-2.24023 -2.15608,-0.0208 -4.14326,-0.0267 -5.89063,-0.0195 z m 11.72656,2.79687 c 2.67125,-0.0632 3.78827,0.5246 6.00196,2.73828 2.57816,2.57817 2.98242,3.71794 2.98242,8.42383 0,3.99139 -0.55216,6.14368 -2.07227,8.07617 -1.74121,2.21361 -2.86524,2.63477 -7.03125,2.63477 -3.19428,0 -5.13926,-0.47069 -5.46679,-1.32422 -0.27961,-0.72876 -0.37817,-5.56626 -0.21875,-10.75 L 681.5,174.5 l 4.26758,-0.30859 c 0.45275,-0.0327 0.86646,-0.0554 1.24804,-0.0645 z" />
    <path
       id="path1095"
       style="fill:#ee1d23;fill-opacity:1;stroke-width:0.999999"
       transform="matrix(0.26458333,0,0,0.26458333,-156.32652,-46.209015)"
       d="M 210.01172,74.611328 C 199.29377,74.648292 194,79.002058 194,87.779297 c 0,5.081253 4.2601,11.49739 11.08203,16.691403 2.86897,2.18432 6.04867,5.33432 7.06445,7 3.64695,5.9803 1.57628,11.63321 -4.98046,13.59766 -5.65425,1.69406 -10.62284,-0.67749 -13.1504,-6.27734 l -1.93554,-4.29102 0.20898,5.95898 c 0.19151,5.42453 0.43517,6.02107 2.71094,6.6504 1.37499,0.38021 4.87608,0.73621 7.78125,0.79101 10.58838,0.19982 17.22089,-5.28106 17.21484,-14.22656 -0.005,-6.48193 -1.99261,-9.85941 -9.57812,-16.275392 C 201.34336,89.722969 200,88.048515 200,84.425781 c 0,-6.927227 10.04436,-10.109925 15.30469,-4.849609 1.41729,1.417289 2.76718,3.554789 3,4.75 0.23281,1.195211 0.48368,-0.162534 0.55859,-3.017578 0.0834,-3.180442 -0.34328,-5.486436 -1.10156,-5.955078 -0.6807,-0.420692 -4.16818,-0.75466 -7.75,-0.742188 z M 827.5,81.958984 l -0.66211,4.769532 c -0.36432,2.623925 -0.70181,12.219765 -0.75,21.322264 -0.0605,11.43395 -0.45806,16.92095 -1.28711,17.75 -0.93333,0.93332 -0.004,1.19922 4.18945,1.19922 4.55842,0 5.1273,-0.19291 3.68165,-1.25 -1.42649,-1.04307 -1.81466,-3.73534 -2.34766,-16.25 l -0.63867,-15 17.21875,16.75 c 9.47021,9.2125 17.63985,16.75 18.15625,16.75 0.54262,0 0.98188,-6.85856 1.03906,-16.25 0.0544,-8.9375 0.39189,-18.706785 0.75,-21.708984 0.56217,-4.713011 0.99184,-5.553097 3.15039,-6.150391 1.40981,-0.3901 -1.20664,-0.668971 -6,-0.640625 -4.675,0.02758 -7.26311,0.237795 -5.75195,0.466797 1.84152,0.279058 2.89153,1.135934 3.18554,2.599609 C 862.28954,90.577612 862.97186,116 862.23047,116 c -0.4144,0 -8.39826,-7.66006 -17.74219,-17.021484 z M 681.20703,82 c -0.42978,0 -2.26555,9.562499 -4.08008,21.25 -1.81454,11.6875 -3.76597,21.8125 -4.33593,22.5 -0.80451,0.97039 0.0404,1.25 3.77734,1.25 4.09084,0 4.55799,-0.18768 3.11328,-1.25 -1.58503,-1.1655 -1.59531,-2.06124 -0.16797,-13.25 0.84196,-6.6 1.65955,-12.675001 1.81836,-13.5 0.15882,-0.824999 3.26188,4.35 6.89453,11.5 9.96151,19.60684 8.32665,19.36794 16.77539,2.45898 7.6643,-15.338988 7.76881,-15.522198 8.41602,-14.874996 0.82347,0.823473 3.76955,25.094706 3.27539,26.984376 -0.46296,1.77038 0.0499,1.92723 6.15039,1.86914 4.94354,-0.0471 6.08435,-0.29359 4.43555,-0.95703 -2.62347,-1.05564 -2.5202,-0.6507 -5.80078,-22.98047 -1.41405,-9.624998 -2.93726,-18.399999 -3.38477,-19.5 -0.65701,-1.614985 -2.47779,1.320763 -9.45898,15.25 -4.75504,9.4875 -8.86589,17.25 -9.13477,17.25 -0.26888,0 -4.31888,-7.65 -9,-17 -4.68112,-9.349999 -8.86319,-17 -9.29297,-17 z m 351.03317,0.375 C 1023.7166,82.527662 1017,87.164987 1017,93.472656 c 0,5.708848 2.5015,9.221154 9.9844,14.017574 9.6044,6.15631 11.2081,9.84875 6.6015,15.20313 -2.0288,2.35804 -3.1486,2.79193 -7.0214,2.71094 -4.8805,-0.10211 -9.535,-3.17117 -9.5957,-6.32813 -0.025,-1.31189 -0.202,-1.27905 -1.0626,0.19922 -1.7647,3.03198 -0.6975,7.05797 2.0938,7.89453 4.3106,1.29192 15.3758,0.28426 18.3613,-1.67187 8.3046,-5.44139 7.1042,-17.10997 -2.3847,-23.17188 C 1023.4532,95.603419 1023,95.160367 1023,91.566406 1023,87.219076 1025.8893,85 1031.5488,85 c 4.0911,0 7.3747,2.253747 8.7442,6 0.3015,0.824999 0.5858,-0.579452 0.6289,-3.121094 l 0.078,-4.621094 -5.0098,-0.664062 c -1.2771,-0.169414 -2.5323,-0.240559 -3.75,-0.21875 z M 417.70312,82.630859 C 417.31642,83.017566 417,92.451656 417,103.5957 c 0,17.08659 -0.2471,20.50688 -1.57227,21.83203 -1.42857,1.42857 -1.04728,1.57227 4.19141,1.57227 5.2205,0 5.58079,-0.13308 3.82227,-1.41797 -1.74127,-1.27226 -1.97664,-2.94545 -2.2793,-16.25 L 420.82617,94.5 l 17.04297,16.83594 c 9.37434,9.25963 17.51415,16.546 18.08789,16.1914 0.66725,-0.41238 1.04297,-7.76186 1.04297,-20.39453 0,-20.130299 0.34137,-22.131889 4,-23.439451 0.825,-0.294863 -2.1,-0.518455 -6.5,-0.498047 -4.4,0.02038 -7.1,0.256957 -6,0.527344 4.28196,1.052519 4.5,1.907732 4.5,17.638674 v 15.11719 L 435.70312,99.203125 c -9.51329,-9.501645 -17.6133,-16.958968 -18,-16.572266 z m 561.10547,0.03711 c -8.34477,-0.01027 -8.85627,0.386169 -9.24414,1.832031 -1.08514,4.045349 -0.71874,4.721496 1.65821,3.056641 C 972.66118,86.549053 975.65948,86 979.72266,86 H 986 v 18.56641 c 0,10.88549 -0.4282,19.3659 -1.03516,20.5 -0.97273,1.81762 -0.65615,1.93232 5.25,1.91797 4.35084,-0.0106 5.82351,-0.30711 4.78516,-0.9629 -1.2302,-0.77692 -1.5618,-4.48404 -1.84375,-20.60742 l -0.34375,-19.658201 6.72656,0.427735 c 5.51574,0.351209 7.06354,0.842733 8.59374,2.732422 L 1010,91.220703 v -4.070312 -4.070313 l -19.94922,-0.289062 c -4.80745,-0.06992 -8.46059,-0.119625 -11.24219,-0.123047 z m -499.57617,0.05859 c -7.17209,-0.0088 -12.2348,0.140627 -12.23437,0.398438 5.6e-4,0.343752 -0.27721,2.143749 -0.61914,4 -0.58312,3.165517 -0.52817,3.253487 0.89062,1.414062 1.18616,-1.537824 3.04663,-2.048295 8.62109,-2.363281 L 483,85.773438 V 105.1875 c 0,13.76555 -0.34831,19.76237 -1.19922,20.61328 C 480.86745,126.7341 482.02222,127 487,127 c 4.9778,0 6.13255,-0.26589 5.19922,-1.19922 C 491.34879,124.95035 491,118.97856 491,105.30078 V 86 h 4.93555 c 6.0698,0 9.74572,1.310511 10.36328,3.693359 0.25752,0.993733 0.52214,-0.08693 0.58594,-2.402343 L 507,83.080078 486.99805,82.791016 c -2.75015,-0.0399 -5.37493,-0.06151 -7.76563,-0.06445 z M 247.07617,83 c -15.23865,0 -20.23203,0.304132 -20.52344,1.25 -0.2118,0.6875 -0.65196,2.471734 -0.97851,3.964844 l -0.59375,2.714844 2.46484,-2.464844 C 229.56986,86.340288 230.82555,86 236.54688,86 h 6.63671 l -0.34179,19.53711 c -0.28037,16.01589 -0.61216,19.70778 -1.8418,20.48437 -1.031,0.65115 0.63365,0.95231 5.32227,0.9629 6.2013,0.0139 6.67857,-0.12807 5.25,-1.55665 C 250.2544,124.10985 250,120.8022 250,104.92773 V 86 l 5.25,0.0059 c 2.8875,0.0034 6.4875,0.652411 8,1.441407 2.28044,1.189595 2.75,1.203054 2.75,0.07617 0,-0.747398 0.27358,-2.071424 0.60742,-2.941407 C 267.14853,83.171869 265.02889,83 247.07617,83 Z M 405,83 390.25,83.136719 c -8.1125,0.0749 -13.71244,0.333942 -12.44531,0.576172 3.80284,0.726988 4.41811,4.374155 3.98828,23.605469 -0.31614,14.14436 -0.69664,18.00741 -1.8457,18.73437 -0.91804,0.5808 3.53931,0.92182 12.18554,0.93165 13.29899,0.0149 13.64815,-0.0396 14.23633,-2.23438 0.33166,-1.2375 0.5819,-3.15 0.55469,-4.25 -0.0453,-1.82199 -0.13215,-1.79931 -0.96094,0.26367 -1.16902,2.90985 -5.44016,4.54086 -10.25195,3.91211 C 389.62165,123.88009 389,122.82881 389,113.33008 v -8.42578 l 6.22461,0.29882 c 5.48995,0.26258 6.37476,0.59203 7.48633,2.79688 1.20921,2.39852 1.25945,2.32749 1.27344,-1.75 L 404,102 h -7.5 -7.5 v -8.044922 -8.046875 l 6.72461,0.296875 c 6.02591,0.264971 6.8546,0.554649 7.98437,2.794922 1.20968,2.398677 1.26141,2.327751 1.2754,-1.75 z m 136,0 -15.25,0.119141 c -8.3875,0.06508 -13.9,0.405371 -12.25,0.757812 l 3,0.640625 0.27148,19.863282 c 0.18874,13.80546 -0.0779,20.28215 -0.87304,21.24023 h 0.002 C 514.93783,126.78087 516.91548,127 528.37695,127 H 542 v -2.41797 c 0,-1.33002 0.25446,-3.24252 0.56445,-4.25 0.31001,-1.00749 -0.14475,-0.61351 -1.00976,0.875 -1.86668,3.21223 -6.68144,4.43281 -12.27539,3.11328 L 525.5,123.42969 525.21289,114.21484 524.92578,105 h 5.97852 c 3.28818,0 6.25577,0.45 6.5957,1 1.17963,1.90869 2.49995,0.98528 2.50195,-1.75 l 0.002,-2.75 -7.50196,0.32812 L 525,102.1582 V 94.078125 86 h 5.92773 c 3.93651,0 6.43371,0.504019 7.42969,1.5 C 540.51437,89.65695 541,89.381162 541,86 Z m 422,0 -14.75,0.09961 c -8.1125,0.05482 -13.64928,0.405943 -12.30469,0.78125 3.6398,1.015922 4.32627,5.386085 3.84571,24.44726 -0.33223,13.1778 -0.73478,17.02397 -1.85743,17.73438 -0.89922,0.56902 3.6477,0.91205 12.19922,0.92188 13.29899,0.0149 13.64815,-0.0396 14.23633,-2.23438 0.33165,-1.2375 0.5819,-3.15 0.55469,-4.25 -0.0453,-1.82199 -0.13215,-1.79931 -0.96094,0.26367 -1.16902,2.90985 -5.44016,4.54086 -10.25195,3.91211 C 947.62165,123.88009 947,122.82881 947,113.33008 v -8.42578 l 6.22461,0.29882 c 5.48995,0.26258 6.37476,0.59203 7.48633,2.79688 1.19854,2.37743 1.26109,2.27937 1.27734,-2 l 0.0156,-4.5 -7.50196,0.32812 L 947,102.1582 v -8.124997 -8.125 l 6.72461,0.296875 c 6.02591,0.264971 6.85461,0.554649 7.98437,2.794922 1.20968,2.398677 1.26103,2.327751 1.2754,-1.75 z m -205.24609,0.105469 c -2.13171,-0.02256 -4.87692,-0.01259 -8.39649,0.01367 C 740.63607,83.184219 734.85,83.52451 736.5,83.876951 l 3,0.640625 0.27148,19.863284 c 0.18873,13.80546 -0.0779,20.28215 -0.87304,21.24023 -0.95351,1.14891 3.5e-4,1.37298 5.72851,1.34766 5.15684,-0.0228 6.43617,-0.28401 5.12305,-1.04883 -1.48199,-0.86319 -1.75,-2.55061 -1.75,-11.01758 v -9.99804 l 6.22461,0.29882 c 5.48995,0.26258 6.37476,0.59203 7.48633,2.79688 1.20921,2.39852 1.25907,2.32749 1.27344,-1.75 L 763,102 h -7.5 -7.5 v -8 -8 h 6.42773 c 4.51083,0 6.89737,0.469622 8,1.572266 1.35536,1.355365 1.57227,1.3649 1.57227,0.08008 0,-0.819304 0.27358,-2.20033 0.60742,-3.070313 0.40418,-1.053272 -0.45839,-1.408878 -6.85351,-1.476562 z M 778.5,83.21875 c -5.5,0.01025 -8.65,0.304867 -7,0.65625 l 3,0.638672 0.54492,15.494138 c 0.70004,19.90427 2.15377,23.51454 10.69531,26.5625 9.82478,3.50585 20.76624,0.35473 24.68165,-7.10937 1.75895,-3.35318 2.15477,-6.3301 2.57812,-19.41797 0.49999,-15.457246 0.50006,-15.457725 3,-16.150392 1.4195,-0.393316 -1.1737,-0.677037 -6,-0.65625 -4.675,0.02008 -7.51983,0.225864 -6.32227,0.458984 4.2051,0.818567 4.55825,2.40305 4.14649,18.537108 -0.24585,9.63313 -0.8498,16.09477 -1.63672,17.50781 -2.67315,4.80012 -11.37601,6.76612 -17.02344,3.84571 -4.9799,-2.5752 -5.66406,-5.3498 -5.66406,-22.93555 V 84.595703 l 2.5,-0.699219 c 1.375,-0.38375 -2,-0.687939 -7.5,-0.677734 z m -501,0.01758 c -5.5,0.02008 -8.875,0.244466 -7.5,0.5 1.375,0.255549 2.83029,0.983185 3.23438,1.615234 0.40406,0.632051 0.74452,6.998437 0.75585,14.148438 0.0115,7.149998 0.48662,14.673328 1.05469,16.718748 1.44489,5.20257 5.30536,9.40975 9.71094,10.58008 11.9804,3.18257 21.76998,-0.41366 25.3125,-9.29883 0.65786,-1.65 1.47482,-9.73035 1.81445,-17.957029 0.61435,-14.880794 0.63003,-14.961224 3.11719,-15.650391 1.4196,-0.393358 -1.17335,-0.677037 -6,-0.65625 -4.675,0.02008 -7.46244,0.234333 -6.19531,0.476563 3.6251,0.69301 4.41092,4.502996 3.98437,19.287107 -0.42754,14.81811 -1.5885,18.67543 -6.26172,20.80469 -4.09687,1.86666 -10.88814,1.4858 -13.75781,-0.77149 -4.24505,-3.33915 -4.84568,-6.38062 -4.54687,-23.01172 L 282.5,84.587891 285,83.894531 c 1.375,-0.381857 -2,-0.678234 -7.5,-0.658203 z m 614,-0.101562 c -7.7,0.05648 -12.65,0.389746 -11,0.742187 l 3,0.640625 0.27148,19.86328 c 0.18349,13.4219 -0.0865,20.29461 -0.83398,21.19531 -0.90032,1.08481 0.25903,1.4082 6.22852,1.74024 20.58436,1.14492 29.65235,-1.61507 35.29882,-10.74805 2.56956,-4.15614 3.03121,-5.90504 3.03321,-11.48633 0.003,-7.827453 -2.20233,-12.992379 -7.16211,-16.775387 C 915.24133,84.420784 907.41603,83.018016 891.5,83.134766 Z m 5.6582,2.646484 c 14.17346,0.129531 22.81539,8.086998 22.83594,21.320308 0.0118,7.63501 -3.71204,13.97042 -9.71289,16.52735 -3.74177,1.59434 -13.984,1.77465 -16.53125,0.29101 -1.56662,-0.91246 -1.75,-2.95199 -1.75,-19.46875 0,-18.425556 0.003,-18.452215 2.25,-18.591793 0.99314,-0.0617 1.96331,-0.08674 2.9082,-0.07813 z M 330.17578,83.298828 c -5.66271,0.03049 -8.91328,0.227914 -7.67578,0.517578 l 3,0.701172 0.27148,19.863282 c 0.18349,13.4219 -0.0865,20.29461 -0.83398,21.19531 -0.90032,1.08481 0.25902,1.4082 6.22852,1.74024 20.58785,1.14511 29.65134,-1.61616 35.30078,-10.75391 2.64689,-4.28124 3.0332,-5.82876 3.0332,-12.14844 0,-6.436644 -0.33535,-7.718207 -3.00977,-11.523435 -1.81375,-2.580646 -4.96513,-5.288782 -7.93359,-6.816406 -4.64193,-2.388798 -5.90491,-2.547014 -21.99023,-2.748047 -2.34657,-0.02933 -4.50306,-0.03751 -6.39063,-0.02734 z m 9.19531,2.484375 c 15.1728,0.215944 23.80276,9.405849 22.29102,24.158207 -0.58624,5.72078 -2.48187,9.08823 -7.02539,12.48047 -2.04232,1.52478 -4.56931,2.11876 -9.9375,2.33593 C 333.57054,125.20801 334,126.0236 334,104.45117 c 0,-18.425558 0.003,-18.452217 2.25,-18.591795 1.0686,-0.06638 2.10957,-0.09057 3.12109,-0.07617 z M 611.13281,82.361328 C 602.42948,82.493449 596,87.2136 596,94.019531 c 0,5.492183 2.59041,8.979239 10.01953,13.492189 9.34978,5.67969 11.15333,9.85018 6.56641,15.18164 -2.02874,2.35804 -3.14868,2.79193 -7.02149,2.71094 C 600.79256,125.30446 596,122.22971 596,119.26758 c 0,-0.76176 -0.45,-1.10751 -1,-0.76758 -0.55,0.33992 -1,2.16605 -1,4.05859 0,6.06869 -3.76444,3.92559 -13.4707,-7.66992 l -6.75,-8.06445 2.99023,-3.16211 c 5.82863,-6.162118 6.84583,-11.677623 2.98047,-16.158204 -2.98197,-3.456586 -7.98338,-4.479208 -21.25,-4.34375 -6.05,0.06178 -9.875,0.320638 -8.5,0.576172 1.375,0.255549 2.83029,0.983186 3.23438,1.615234 1.15219,1.80228 0.9099,37.511048 -0.26954,39.714848 -0.97093,1.81418 -0.65528,1.93359 5.07227,1.93359 5.55147,0 5.96373,-0.14369 4.53516,-1.57227 -1.14652,-1.14652 -1.57227,-3.58009 -1.57227,-9 V 109 h 3.83398 c 3.51977,0 4.14227,0.44832 7.60938,5.48242 2.07704,3.01576 5.53624,7.07404 7.6875,9.01758 3.74306,3.38151 4.21396,3.52674 10.92969,3.38867 3.85975,-0.0793 7.33764,0.18684 7.72851,0.58985 1.23402,1.27232 13.84943,-0.11214 16.23242,-1.78125 8.8549,-6.20221 7.5887,-17.47345 -2.64062,-23.49415 C 604.71559,97.69157 601.75,94.707226 601.75,91.503906 c 0,-4.262139 3.49339,-6.67241 9.13672,-6.302734 3.90231,0.255624 4.87058,0.781099 6.83008,3.697266 L 620,92.294922 v -4.517578 -4.519532 l -5.00977,-0.664062 c -1.32403,-0.175639 -2.61408,-0.251296 -3.85742,-0.232422 z m -46.41992,3.486328 C 571.77063,85.908472 575,89.435199 575,96.992188 c 0,2.628746 -0.73232,4.715532 -2.25,6.414062 -2.3587,2.63977 -5.71295,3.66619 -9.5,2.90625 -2.152,-0.43183 -2.25,-0.88501 -2.25,-10.382812 0,-9.596474 0.0757,-9.934347 2.25,-10.048829 0.50472,-0.02658 0.99237,-0.03726 1.46289,-0.0332 z m 80.97461,-3.576172 c -0.47465,0.158219 -4.76102,9.376315 -9.52539,20.486326 -4.76438,11.11001 -9.44523,21.10926 -10.40234,22.22071 -1.70955,1.98528 -1.66287,2.02148 2.65625,2.02148 3.90362,0 4.33725,-0.22485 3.87304,-2 -0.28755,-1.0996 0.48302,-4.4746 1.71094,-7.5 l 2.23242,-5.5 h 7.82617 7.82813 l 2.80664,7.48828 2.80664,7.49024 5.20312,0.01 5.20118,0.0117 -2.20118,-2.43359 c -1.21122,-1.33871 -6.01675,-11.4688 -10.67773,-22.50977 -4.66097,-11.040961 -8.86325,-19.943367 -9.33789,-19.785156 z M 644.12695,92.5 l 2.9336,7.5 c 1.61286,4.125 2.93354,8.0625 2.93554,8.75 0.003,0.86152 -1.8608,1.25 -5.99609,1.25 -7.57211,0 -7.49101,0.77062 -1.43555,-13.75 z" />
    <path
       id="path925"
       style="fill:#ee1d23;fill-opacity:1;stroke-width:0.264583"
       d="m -119.30818,62.961568 c -4.5639,-1.316395 -9.40792,-5.986976 -11.64345,-11.226574 -1.10848,-2.598023 -0.9386,-2.754426 0.60474,-0.556781 2.5443,3.622951 6.26821,6.795422 9.51689,8.107623 2.77779,1.121997 6.08418,1.055944 6.25763,-0.125008 0.20705,-1.40966 -2.21548,-7.456456 -5.96231,-14.882332 -2.0926,-4.147345 -3.90878,-7.644912 -4.03596,-7.77237 -0.13228,-0.132561 -1.06061,-0.01931 -2.16908,0.264584 -2.88841,0.739791 -9.59464,0.67719 -12.52117,-0.11688 -4.73114,-1.283721 -9.09733,-4.297937 -10.97203,-7.57458 -0.82431,-1.440736 -1.7265,-4.435026 -1.50251,-4.986687 0.0713,-0.175602 0.13903,-0.09856 0.15052,0.171198 0.0477,1.11972 1.97768,4.179682 3.56128,5.646342 2.87655,2.664121 6.91156,4.179046 11.95741,4.489352 3.79193,0.233194 9.90243,-0.74364 9.90207,-1.582965 -8e-5,-0.171574 -0.24496,-0.956109 -0.5442,-1.743411 -0.58926,-1.550379 -1.42688,-4.994665 -1.67871,-6.902919 -0.13987,-1.059802 -0.0421,-0.92024 0.88952,1.270153 1.13187,2.66114 3.05758,6.292409 3.47315,6.549246 0.40801,0.252169 2.61587,-1.16749 4.28264,-2.75376 2.64795,-2.520056 3.85046,-5.881821 3.52569,-9.856498 -0.42156,-5.159299 -3.01522,-9.4898589 -6.73865,-11.2513226 -1.95547,-0.9250893 -4.73989,-1.1283476 -6.67092,-0.4869631 -2.77067,0.9202686 -5.16679,4.0697447 -6.86282,9.0205117 l -0.8048,2.349257 0.14789,-1.5875 c 0.81596,-8.7588761 5.91259,-13.7469287 12.87185,-12.5976315 6.15309,1.0161615 10.7523,6.5465045 11.59197,13.9388315 0.74685,6.575066 -1.98399,12.105149 -7.63575,15.462796 l -1.82757,1.085739 2.7333,4.350397 c 4.81678,7.666514 7.36625,13.334501 8.46517,18.819769 0.23868,1.191379 0.39493,2.441327 0.34723,2.777657 -0.20634,1.454817 -5.78476,2.544189 -8.70902,1.700726 z m -29.87459,-44.231877 c 0,-0.587253 3.9015,-8.172306 7.42091,-14.4272494 7.61993,-13.5427075 9.27091,-18.1809786 9.26798,-26.0374956 -0.002,-5.356356 -1.25063,-8.857982 -4.06613,-11.402925 -2.95716,-2.672982 -6.59656,-3.59225 -9.0765,-2.292609 -2.48673,1.303201 -4.87005,4.890591 -5.96255,8.97485 -0.58003,2.168441 -0.80171,6.604604 -0.43422,8.689435 l 0.18656,1.058333 -0.41571,-0.926042 c -0.8337,-1.857155 -1.21242,-4.500012 -1.06161,-7.408334 0.25739,-4.96382 1.56997,-8.301054 4.38146,-11.139875 2.30488,-2.327299 3.95223,-2.983287 7.09257,-2.824326 1.9102,0.09669 2.45112,0.247637 4.46689,1.246491 4.36073,2.160828 7.16348,5.96238 8.19479,11.115133 0.68316,3.413304 0.4185,8.964712 -0.61895,12.982654 -1.7132,6.6351186 -3.92663,10.6922585 -12.26783,22.4865937 -2.10977,2.9831773 -4.46925,6.3764593 -5.24329,7.5406263 -1.58367,2.381858 -1.86437,2.737887 -1.86437,2.36474 z m 27.68301,-40.86941 c -1.31743,-1.565668 -1.13966,-3.846727 0.40079,-5.142929 1.19405,-1.004731 1.68623,-0.881248 2.07901,0.5216 0.18351,0.655444 0.2687,1.675989 0.18931,2.267878 -0.14359,1.070599 -1.30462,3.154989 -1.75735,3.154989 -0.13052,0 -0.54082,-0.360692 -0.91176,-0.801538 z m -3.74622,-15.189705 c -1.21703,-1.217026 -0.56363,-2.794176 1.1576,-2.794176 0.70575,0 0.91649,0.153408 1.29173,0.940296 0.53603,1.124069 0.30482,1.650166 -0.95034,2.162322 -0.78088,0.318633 -0.8955,0.295048 -1.49899,-0.308442 z" />
  </g>
</svg>
