<?xml version="1.0" encoding="UTF-8" standalone="no"?>
<svg
   xmlns:dc="http://purl.org/dc/elements/1.1/"
   xmlns:cc="http://creativecommons.org/ns#"
   xmlns:rdf="http://www.w3.org/1999/02/22-rdf-syntax-ns#"
   xmlns:svg="http://www.w3.org/2000/svg"
   xmlns="http://www.w3.org/2000/svg"
   xmlns:sodipodi="http://sodipodi.sourceforge.net/DTD/sodipodi-0.dtd"
   xmlns:inkscape="http://www.inkscape.org/namespaces/inkscape"
   width="355.14349mm"
   height="103.38015mm"
   viewBox="0 0 355.14349 103.38015"
   version="1.1"
   id="svg8"
   inkscape:version="1.0.1 (3bc2e813f5, 2020-09-07)"
   sodipodi:docname="logo_big.svg">
  <defs
     id="defs2" />
  <sodipodi:namedview
     id="base"
     pagecolor="#ffffff"
     bordercolor="#666666"
     borderopacity="1.0"
     inkscape:pageopacity="0.0"
     inkscape:pageshadow="2"
     inkscape:zoom="0.70000001"
     inkscape:cx="561.03739"
     inkscape:cy="300.21343"
     inkscape:document-units="mm"
     inkscape:current-layer="layer1"
     inkscape:document-rotation="0"
     showgrid="false"
     fit-margin-top="0"
     fit-margin-left="0"
     fit-margin-right="0"
     fit-margin-bottom="0"
     inkscape:window-width="2400"
     inkscape:window-height="1271"
     inkscape:window-x="2391"
     inkscape:window-y="-9"
     inkscape:window-maximized="1" />
  <metadata
     id="metadata5">
    <rdf:RDF>
      <cc:Work
         rdf:about="">
        <dc:format>image/svg+xml</dc:format>
        <dc:type
           rdf:resource="http://purl.org/dc/dcmitype/StillImage" />
        <dc:title></dc:title>
      </cc:Work>
    </rdf:RDF>
  </metadata>
  <g
     inkscape:label="Layer 1"
     inkscape:groupmode="layer"
     id="layer1"
     transform="translate(153.35647,40.1236)">
    <path
       id="path1144"
       style="fill:#000000;stroke-width:0.356922"
       d="m -94.834047,15.032678 c -2.712305,0.06085 -4.973575,1.108569 -5.921983,2.876989 -1.32183,2.464686 -0.46561,5.239798 2.407128,7.803487 3.715381,3.315664 4.402567,4.067359 4.789177,5.238806 0.541658,1.641242 -0.127706,2.991985 -1.914972,3.864798 -1.170235,0.571497 -1.576765,0.610034 -2.747335,0.259326 -1.42067,-0.42564 -2.835478,-1.843991 -2.844908,-2.851893 -0.003,-0.317065 -0.16106,-0.817434 -0.35135,-1.111894 -0.24112,-0.373037 -0.3473,0.245937 -0.35135,2.041844 l -0.006,2.577926 1.16,0.356226 c 1.791128,0.550096 5.728856,0.232717 7.108474,-0.573027 1.811883,-1.058196 2.79612,-2.764747 2.79612,-4.847726 0,-2.445859 -0.817676,-3.938825 -3.337082,-6.094166 -4.108014,-3.514377 -4.515214,-3.996585 -4.515214,-5.342678 0,-1.899386 1.03038,-2.930665 2.928578,-2.930665 1.958221,0 3.450619,0.934364 3.730949,2.336026 0.354848,1.774252 0.83584,1.174755 0.83584,-1.042184 0,-2.06301 -0.01802,-2.100526 -1.115381,-2.319994 -0.716421,-0.143283 -1.421674,-0.222116 -2.103192,-0.239809 -0.184575,-0.0048 -0.367109,-0.0055 -0.547929,-0.0014 z m 46.926191,3.106336 c -0.336107,0.123874 -1.737797,2.588895 -3.736532,6.582147 l -3.457683,6.907698 -3.438162,-6.749453 c -1.891045,-3.712036 -3.598778,-6.725886 -3.795085,-6.697868 -0.196307,0.02802 -0.942734,3.740747 -1.659131,8.251036 -0.716389,4.510292 -1.415867,8.383278 -1.553863,8.606561 -0.138004,0.223287 -0.595486,0.545134 -1.017089,0.71524 -0.520014,0.209817 0.208913,0.307717 2.267012,0.303941 2.449256,-0.0045 2.844708,-0.07448 2.052302,-0.363893 -1.176687,-0.429763 -1.219339,-1.072615 -0.446153,-6.723659 0.282022,-2.061225 0.523266,-3.908297 0.536079,-4.104604 0.01281,-0.196307 1.342841,2.212917 2.955761,5.353831 1.61292,3.140915 3.093372,5.710753 3.28968,5.710753 0.196307,0 1.668703,-2.569838 3.27225,-5.710753 1.688581,-3.307475 2.992888,-5.485446 3.099365,-5.17537 0.361341,1.052335 1.361969,9.680644 1.178122,10.15973 -0.269644,0.70269 0.55299,0.909937 3.454895,0.868605 2.306548,-0.03284 2.443913,-0.07341 1.397014,-0.409207 -1.459179,-0.468039 -1.560881,-0.816445 -2.946699,-10.06562 -0.586779,-3.916285 -1.216504,-7.270239 -1.399106,-7.45284 -0.01278,-0.01278 -0.03059,-0.01453 -0.05298,-0.0063 z m 54.4229456,0.124088 c -0.2585972,0 -0.4657619,2.727702 -0.6267052,8.267764 -0.1431829,4.928727 -0.3923573,8.451526 -0.617643,8.722983 -0.2078501,0.250438 -0.7276785,0.523979 -1.1551177,0.607185 -0.4274321,0.08321 0.8288694,0.158266 2.7919409,0.167307 2.7803802,0.01278 3.3141964,-0.05719 2.4141032,-0.317186 C 8.5589003,35.490827 8.110906,35.107404 8.0048216,34.583224 7.7229103,33.1906 7.4729256,23.616933 7.718306,23.616933 c 0.1297162,0 3.159728,2.908151 6.733421,6.462938 3.64502,3.625736 6.666412,6.358827 6.8826,6.225224 0.237374,-0.146706 0.4033,-1.908923 0.432211,-4.589097 0.02584,-2.393177 0.146281,-6.19198 0.267691,-8.441346 0.214689,-3.977707 0.245434,-4.096552 1.11329,-4.336746 0.490768,-0.135827 -0.633536,-0.238503 -2.498454,-0.228651 -1.864918,0.0099 -2.960498,0.08343 -2.435019,0.16382 0.525482,0.08039 1.108636,0.337205 1.295934,0.570936 0.187306,0.23373 0.451995,3.075387 0.588365,6.314455 L 20.34582,31.64768 13.623557,24.955391 C 9.9260653,21.274632 6.7273476,18.263102 6.5150896,18.263102 Z m 128.9443704,0.0077 c -3.96865,0.01413 -6.40369,1.762064 -6.40369,4.596071 0,2.045906 1.04571,3.444402 4.10042,5.485586 3.01098,2.011959 3.77459,3.141853 3.24088,4.794048 -0.43882,1.358481 -2.4953,2.368895 -4.17919,2.052998 -1.53694,-0.28834 -3.06451,-1.737971 -3.06451,-2.907665 0,-0.485579 -0.15649,-0.768007 -0.35692,-0.644134 -0.19631,0.121325 -0.35692,1.091111 -0.35692,2.155474 0,1.820709 0.0581,1.948316 0.98153,2.15199 0.53985,0.119065 1.14215,0.280144 1.33846,0.357618 0.849,0.335032 4.82413,-0.166444 5.77558,-0.728482 2.45349,-1.44931 3.29588,-4.457688 1.95053,-6.966255 -0.36404,-0.678773 -1.44818,-1.754254 -2.40923,-2.389703 -4.53223,-2.99675 -4.4248,-2.89617 -4.419,-4.12482 0.006,-1.363275 0.24915,-1.801079 1.30918,-2.359034 1.90085,-1.000528 5.10984,0.102537 5.10984,1.756728 0,0.378366 0.16062,0.688049 0.35692,0.688049 0.19631,0 0.35693,-0.785739 0.35693,-1.74627 0,-2.057902 -0.19202,-2.183374 -3.33081,-2.172206 z m -161.566491,0.170787 -6.156906,0.140121 c -3.386548,0.07705 -5.683038,0.237952 -5.102868,0.357618 1.409828,0.290788 1.544787,0.91553 1.583841,7.354547 0.04546,7.493989 -0.16811,8.983657 -1.348219,9.416607 -0.683974,0.250937 0.163556,0.33571 3.17117,0.317186 2.257532,-0.01392 3.674342,-0.0911 3.148863,-0.171487 -1.566149,-0.239606 -1.817137,-0.893754 -1.859899,-4.840059 l -0.03974,-3.651481 1.577567,-0.112934 c 2.224459,-0.158941 3.146364,0.154291 3.729557,1.267356 0.49862,0.951647 0.508839,0.935003 0.633676,-1.040792 0.115578,-1.829369 0.07113,-1.977406 -0.504014,-1.668889 -0.347231,0.186259 -1.712458,0.290795 -3.033837,0.232834 l -2.402945,-0.105259 v -3.033838 -3.033838 l 1.427688,-0.103871 c 2.402699,-0.174728 4.265886,0.368757 4.39809,1.283388 0.191392,1.324049 0.777623,0.48702 0.777976,-1.111198 z m 186.312621,0 -7.87878,0.05647 c -4.33324,0.03091 -7.92497,0.111217 -7.98125,0.178461 -0.0563,0.06724 -0.20902,0.818526 -0.33949,1.669589 l -0.23702,1.546893 0.81214,-0.897184 c 0.69813,-0.771416 1.17661,-0.915206 3.40679,-1.02406 l 2.59396,-0.126875 -0.0955,7.675916 -0.0962,7.675916 -0.8923,0.451032 c -0.76693,0.387781 -0.31558,0.446534 3.2123,0.419662 2.79844,-0.02131 3.72969,-0.11999 2.92648,-0.310215 -0.64796,-0.153459 -1.29042,-0.390791 -1.42769,-0.527713 -0.13727,-0.136926 -0.24957,-3.649371 -0.24957,-7.804883 v -7.555312 l 2.14154,0.111538 c 2.81488,0.146617 3.37602,0.334918 3.74837,1.25829 0.24081,0.597166 0.31581,0.368104 0.33323,-1.012906 z m 16.65334,0 c -1.8281,0 -11.90435,0.413416 -11.28138,0.462885 1.69856,0.134878 1.76892,0.457239 1.73093,7.906659 -0.0196,3.837805 -0.14612,7.373557 -0.28094,7.857165 -0.14221,0.510109 -0.61433,0.984423 -1.12444,1.129323 -0.48361,0.137375 1.85139,0.223758 5.18861,0.191706 l 6.06768,-0.05856 0.0523,-1.78461 c 0.0288,-0.981542 -0.0213,-1.434766 -0.11084,-1.00733 -0.25948,1.237684 -1.07539,1.654733 -3.29804,1.684925 -3.02414,0.04109 -3.24646,-0.25295 -3.24646,-4.290735 v -3.346833 h 1.58315 c 2.07735,0 3.35699,0.515256 3.75744,1.51204 0.28975,0.721157 0.32818,0.673326 0.35274,-0.441274 0.0151,-0.687075 0.1288,-1.628764 0.25305,-2.092734 0.20468,-0.764627 0.15653,-0.806383 -0.51656,-0.446153 -0.40843,0.218587 -1.79722,0.397355 -3.08612,0.397355 h -2.3437 V 22.903119 19.69082 l 1.69538,0.03555 c 2.38131,0.04997 3.41173,0.404539 3.87525,1.334275 0.36418,0.730466 0.4181,0.647678 0.59464,-0.907642 0.10685,-0.941364 0.16863,-1.711413 0.13733,-1.711413 z m -55.7872,0.05019 c -0.96597,0.0095 -3.15694,0.06439 -5.65986,0.145003 -3.33722,0.107477 -5.65783,0.227941 -5.15725,0.267692 1.70118,0.135084 1.76649,0.443147 1.76649,8.285193 0,7.701279 -0.11371,8.315067 -1.60615,8.674181 -0.39261,0.09447 2.00988,0.148047 5.33849,0.119204 l 6.05165,-0.05228 0.29139,-1.403985 c 0.38796,-1.869393 0.16002,-2.408531 -0.46707,-1.104927 -0.57886,1.203359 -2.21791,1.744685 -4.25448,1.404685 -2.00441,-0.334633 -2.14153,-0.610055 -2.14153,-4.293523 v -3.346838 l 1.69538,0.03555 c 2.48984,0.05225 3.42028,0.406009 3.69888,1.405381 0.20166,0.723374 0.25261,0.75248 0.28512,0.165215 0.0217,-0.392614 0.14165,-1.334664 0.267,-2.09343 0.21706,-1.313923 0.19249,-1.360637 -0.51587,-0.981536 -0.40906,0.218929 -1.79791,0.398054 -3.08681,0.398054 h -2.3437 V 22.90312 19.690821 l 1.69538,0.03555 c 2.38617,0.05008 3.41197,0.405007 3.87943,1.342641 0.3742,0.750564 0.42336,0.686186 0.6539,-0.851177 0.13719,-0.914766 0.19695,-1.688691 0.13315,-1.719779 -0.016,-0.0078 -0.20155,-0.0094 -0.52354,-0.0063 z m -18.23021,0.165219 c -2.44662,-0.03077 -2.899561,0.05016 -2.73128,0.488677 0.1968,0.512854 -5.361772,6.969738 -6.000059,6.969738 -0.36238,0 -0.379622,-6.094116 -0.01881,-6.65116 0.144229,-0.222673 0.583346,-0.484693 0.975961,-0.582786 0.392614,-0.09809 -0.972613,-0.178122 -3.033838,-0.177762 -2.061225,3.54e-4 -3.265837,0.104114 -2.676916,0.230047 l 1.070767,0.228652 v 8.016805 8.016805 l -0.892305,0.451032 c -0.768218,0.388674 -0.346322,0.445821 3.033837,0.408508 2.159379,-0.02384 3.524606,-0.117506 3.033838,-0.207739 -1.653827,-0.304062 -1.784611,-0.658008 -1.784611,-4.829602 v -3.932414 l 1.511344,1.745574 c 2.975456,3.437067 5.822082,6.286915 6.769662,6.778032 0.57657,0.29883 1.93891,0.485393 3.39076,0.463581 2.2858,-0.0343 2.354,-0.05907 1.17742,-0.41757 -0.85536,-0.260635 -2.71201,-1.832937 -5.88851,-4.987846 l -4.639287,-4.607921 3.401914,-3.309196 c 2.520123,-2.451516 3.768823,-3.405929 4.817743,-3.682851 1.32233,-0.349102 1.22197,-0.376156 -1.51761,-0.410599 z m -175.805028,0.0029 c -1.162313,0.01813 -1.233986,0.129242 -0.807258,0.441274 0.625078,0.457067 0.582701,0.620466 -0.847689,3.305013 -0.827674,1.553382 -1.788805,3.201009 -2.135958,3.661238 l -0.630888,0.836537 -2.02302,-3.47232 c -2.098177,-3.602604 -2.328335,-4.271655 -1.576175,-4.575156 0.245384,-0.09901 -1.079689,-0.186677 -2.944607,-0.194494 -3.13318,-0.01314 -3.307219,0.02245 -2.294199,0.463581 1.345632,0.585977 6.163634,7.833979 6.658128,10.016126 0.178879,0.789361 0.218433,2.511436 0.08784,3.826454 -0.215049,2.16526 -0.326655,2.423293 -1.184396,2.737563 -0.706605,0.258887 0.09504,0.345005 3.157226,0.338798 2.75531,-0.0056 3.717318,-0.09991 2.926483,-0.287212 -0.64796,-0.153458 -1.29042,-0.391386 -1.427689,-0.529108 -0.137275,-0.137786 -0.249567,-1.803163 -0.249567,-3.700346 v -3.449317 l 2.236338,-3.615232 c 2.456549,-3.9714 3.662271,-5.365616 4.84006,-5.595031 0.426597,-0.0831 -0.579984,-0.17264 -2.237038,-0.199374 -0.651664,-0.01053 -1.160153,-0.0151 -1.547589,-0.0091 z m 106.461767,0.04455 c -2.061225,-0.0072 -3.346426,0.09851 -2.856072,0.234926 1.177154,0.32748 1.335103,1.187837 1.383073,7.533009 0.05514,7.293756 -0.164495,8.806427 -1.341249,9.238146 -0.687625,0.252269 0.147505,0.340125 3.171171,0.333918 2.755309,-0.0056 3.717318,-0.09991 2.926482,-0.287211 -0.64796,-0.153459 -1.290419,-0.391216 -1.427688,-0.528413 -0.418234,-0.41802 -0.527845,-14.190208 -0.121297,-15.243082 0.213526,-0.552997 0.714105,-1.020094 1.190668,-1.111198 0.452266,-0.08646 -0.863863,-0.162921 -2.925088,-0.170095 z m 19.386027,-0.387597 c -0.38881,-7.13e-4 -0.786782,0.01321 -1.194155,0.04113 -3.188481,0.218547 -5.057575,1.042705 -6.759907,2.981556 -1.638647,1.866317 -2.263386,3.53834 -2.251679,6.025152 0.0207,4.39299 2.534322,7.517239 7.059669,8.775264 1.76196,0.489815 5.631302,0.09391 7.453536,-0.762642 2.024365,-0.951565 4.230083,-3.372703 4.797536,-5.266692 0.23086,-0.770545 0.419662,-2.33573 0.419662,-3.477899 0,-5.136223 -3.692481,-8.307593 -9.524662,-8.315867 z m -0.890214,1.056129 c 4.101213,-0.02463 6.842974,3.329623 6.834501,8.52709 -0.005,3.070768 -0.814796,5.299536 -2.271195,6.253803 -1.054873,0.691183 -2.929053,1.153797 -3.963788,0.978052 -1.939628,-0.329436 -2.441554,-0.562324 -3.735832,-1.731629 -1.845544,-1.667336 -2.694658,-3.928641 -2.667853,-7.106375 0.03516,-4.165242 1.726857,-6.505626 4.966239,-6.87075 0.285088,-0.03212 0.564515,-0.04856 0.837928,-0.05019 z m -62.167181,-1.109878 c -6.221965,0 -10.22888,3.531398 -10.220378,9.008099 0.0069,4.395556 2.634799,7.75279 6.956494,8.886107 1.787415,0.468731 5.6506111,0.06758 7.4361071,-0.771705 1.8969227,-0.891663 3.9065582,-2.967104 4.6908766,-4.844242 0.70263677,-1.681657 0.69753277,-5.507422 -0.00974,-7.203273 -1.3057749,-3.130582 -4.6972916,-5.074986 -8.8533597,-5.074986 z m -1.018481,1.135597 c 2.0346701,0.01638 4.1596241,1.00832 5.5106808,2.969007 2.5456111,3.69425 1.8214947,10.210666 -1.3314867,11.98338 -0.588811,0.331052 -1.472304,0.679233 -1.963071,0.773097 -0.84425,0.161468 -1.1780081,0.130587 -3.1321311,-0.287208 -1.330791,-0.284528 -3.56013,-2.576535 -4.25309,-4.372296 -0.911362,-2.361728 -0.818687,-6.190806 0.197981,-8.181325 0.991793,-1.941816 2.936444,-2.901044 4.971117,-2.884655 z M 187.6105,18.662548 c -2.80362,0.02324 -4.61543,0.145246 -4.02651,0.271178 l 1.07076,0.228652 v 8.016805 8.016805 l -0.8923,0.451032 c -0.76822,0.388674 -0.34633,0.445821 3.03383,0.408508 2.15938,-0.02384 3.52461,-0.117506 3.03384,-0.207739 -1.58973,-0.29228 -1.78461,-0.7168 -1.78461,-3.887106 v -2.989919 h 1.34681 c 1.275,0 1.46527,0.159894 3.5518,2.985039 2.55039,3.453146 3.6975,4.1572 6.75504,4.145736 l 2.08785,-0.0077 -1.42769,-0.66365 c -1.45335,-0.67539 -2.63833,-1.815752 -5.69472,-5.480706 l -1.71352,-2.055064 0.98993,-0.978748 c 2.28094,-2.255019 2.81618,-4.14727 1.75463,-6.200129 -0.90205,-1.744342 -2.30783,-2.100858 -8.08514,-2.052998 z m 0.43501,1.028242 h 1.42212 c 1.06695,0 1.71316,0.260096 2.58769,1.041488 1.04881,0.937071 1.16556,1.238527 1.16556,3.005255 0,1.586919 -0.16582,2.14028 -0.86511,2.884655 -0.69839,0.743348 -1.19761,0.920888 -2.58768,0.920888 h -1.72258 V 23.616933 Z M 70.364405,18.737837 c -1.871018,0.0077 -2.969702,0.05719 -2.601626,0.130359 1.765308,0.350904 1.78461,0.440538 1.78461,8.293559 0,7.731246 -0.113919,8.347739 -1.606149,8.697187 -0.392615,0.09195 1.05292,0.171244 3.212298,0.17637 2.906474,0.0068 3.637511,-0.07443 2.814945,-0.313003 -0.985583,-0.285862 -1.136836,-0.509485 -1.338458,-1.9805 -0.125019,-0.912128 -0.227259,-2.358409 -0.227259,-3.21439 v -1.556655 l 1.516918,0.02231 c 1.47774,0.02163 1.569983,0.09573 3.570617,2.861651 2.613326,3.612979 3.644806,4.262934 6.690893,4.216838 2.145098,-0.03244 2.23182,-0.06315 1.15233,-0.409204 -1.128652,-0.361816 -4.524069,-3.648432 -6.653252,-6.439934 l -0.997569,-1.307784 1.456271,-1.654252 c 2.319362,-2.634934 2.295205,-4.963494 -0.06902,-6.715992 -0.911564,-0.675703 -1.533308,-0.750725 -6.603058,-0.799587 -0.769553,-0.0074 -1.478821,-0.0095 -2.102496,-0.007 z m 4.185468,0.998265 c 0.953428,-0.02256 1.352117,0.187241 2.142232,0.977352 0.920202,0.920206 1.064492,1.327015 1.064492,3.006651 0,1.424615 -0.197078,2.192815 -0.739639,2.882563 -0.621476,0.790087 -1.022668,0.940408 -2.509608,0.940408 -1.14011,0 -1.834316,-0.168 -1.951219,-0.472643 -0.0998,-0.260111 -0.134977,-1.986722 -0.07808,-3.836913 l 0.103172,-3.364269 1.523193,-0.110142 c 0.161597,-0.01167 0.309259,-0.01977 0.445453,-0.02302 z" />
    <path
       id="path1095"
       style="fill:#ee1d23;fill-opacity:1;stroke-width:0.356922"
       d="m -95.703349,-15.783221 c -3.825483,0.01319 -5.714941,1.567148 -5.714941,4.699939 0,1.8136111 1.520518,4.1036718 3.955428,5.9575298 1.024,0.779632 2.158902,1.9039372 2.521456,2.4984542 1.301677,2.13450203 0.562609,4.15215 -1.777636,4.853306 -2.01813,0.604647 -3.791528,-0.241812 -4.693678,-2.24052197 l -0.69083,-1.53155903 0.0746,2.12689103 c 0.0683,1.93613497 0.15532,2.14905297 0.96759,2.37367497 0.49077,0.135705 1.740378,0.262769 2.777298,0.282329 3.779236,0.07132 6.146525,-1.884927 6.144365,-5.077774 -0.0018,-2.313544 -0.711206,-3.5190412 -3.418642,-5.8090462 -3.238933,-2.7395448 -3.718413,-3.3371938 -3.718413,-4.6302278 0,-2.47248 3.585063,-3.608456 5.462591,-1.730933 0.505862,0.505862 0.987668,1.268783 1.070766,1.69538 0.0831,0.426597 0.172636,-0.05801 0.199374,-1.07704 0.02977,-1.13517 -0.122525,-1.95823 -0.393172,-2.125499 -0.242956,-0.150154 -1.487715,-0.269355 -2.766146,-0.264903 z m 220.395189,2.622541 -0.23632,1.702351 c -0.13003,0.936537 -0.25049,4.3615038 -0.26769,7.610387 -0.0216,4.08102903 -0.16349,6.03946 -0.4594,6.335366 -0.33312,0.333123 -0.001,0.428028 1.49531,0.428028 1.627,0 1.83005,-0.06885 1.31406,-0.446152 -0.50914,-0.372295 -0.64769,-1.333225 -0.83793,-5.799984 l -0.22796,-5.3538309 6.14576,5.9784449 c 3.38012,3.28814403 6.29605,5.978445 6.48036,5.978445 0.19368,0 0.35046,-2.44797197 0.37087,-5.799984 0.0194,-3.1899912 0.13987,-6.6768649 0.26769,-7.748416 0.20065,-1.682177 0.35401,-1.982023 1.12444,-2.19521 0.50319,-0.139235 -0.43067,-0.238771 -2.14153,-0.228653 -1.66861,0.0098 -2.59236,0.08487 -2.053,0.16661 0.65728,0.0996 1.03205,0.40544 1.13699,0.927858 0.30551,1.520918 0.54904,10.59473 0.28443,10.59473 -0.14791,0 -2.99753,-2.734045 -6.33258,-6.0753442 z m -52.215181,0.01464 c -0.153398,0 -0.808625,3.4130671 -1.45627,7.5845938 -0.64765,4.1715272 -1.344158,7.7853632 -1.54759,8.0307472 -0.287147,0.346353 0.01442,0.446152 1.348217,0.446152 1.460111,0 1.626847,-0.06699 1.111198,-0.446152 -0.565732,-0.415993 -0.569401,-0.735702 -0.05995,-4.729218 0.300514,-2.3556852 0.59233,-4.5239872 0.649012,-4.8184482 0.05669,-0.29446 1.164237,1.552611 2.46081,4.1046042 3.555483,6.998114 2.971966,6.912846 5.987507,0.877664 2.735558,-5.4748232 2.77286,-5.5402152 3.003864,-5.3092142 0.293914,0.293916 1.345435,8.9568552 1.169059,9.6313202 -0.165241,0.631887 0.01781,0.68787 2.19521,0.667137 1.764458,-0.01681 2.171639,-0.104789 1.583145,-0.341585 -0.936374,-0.376782 -0.899515,-0.232249 -2.070426,-8.2022372 -0.504706,-3.4353747 -1.048373,-6.5673658 -1.208099,-6.9599808 -0.234501,-0.576424 -0.884378,0.47141 -3.376119,5.4430618 -1.697179,3.3862982 -3.164432,6.1569062 -3.260401,6.1569062 -0.09597,0 -1.541504,-2.730454 -3.212299,-6.0676762 -1.670795,-3.3372208 -3.163468,-6.0676748 -3.316866,-6.0676748 z m 125.291481,0.133846 c -3.04226,0.05449 -5.43956,1.709652 -5.43956,3.9609981 0,2.0376137 0.89284,3.2912337 3.56365,5.0031819 3.42802,2.197323 4.00042,3.51523603 2.35622,5.426333 -0.72412,0.841636 -1.1238,0.996501 -2.50609,0.967594 -1.74196,-0.03645 -3.40325,-1.131861 -3.42492,-2.25864897 -0.009,-0.468243 -0.0721,-0.456522 -0.37926,0.07111 -0.62986,1.08217997 -0.24896,2.51914497 0.74732,2.81773197 1.53855,0.461114 5.48796,0.101458 6.55355,-0.596728 2.9641,-1.94215197 2.53565,-6.106926 -0.85115,-8.2705552 -3.75603,-2.3994977 -3.91779,-2.5576327 -3.91779,-3.8403967 0,-1.5516581 1.03125,-2.3436961 3.05125,-2.3436961 1.46021,0 2.6322,0.804412 3.121,2.1415331 0.10761,0.29446 0.20909,-0.2068191 0.22447,-1.1139881 l 0.0278,-1.64937 -1.78811,-0.237018 c -0.45582,-0.06047 -0.90383,-0.08586 -1.33845,-0.07808 z m -219.341843,0.09132 c -0.138022,0.138024 -0.250959,3.5052591 -0.250959,7.4828138 0,6.09858123 -0.0882,7.3193582 -0.561178,7.7923342 -0.509888,0.509888 -0.373797,0.561177 1.496007,0.561177 1.863311,0 1.991907,-0.0475 1.364252,-0.506104 -0.621497,-0.454098 -0.705506,-1.051296 -0.813532,-5.799984 l -0.119905,-5.2938789 6.083013,6.0091189 c 3.345908,3.30496603 6.2511861,5.905632 6.4559671,5.779068 0.238156,-0.147188 0.372259,-2.77037897 0.372259,-7.279258 0,-7.184948 0.121842,-7.89936 1.427688,-8.366058 0.2944605,-0.105243 -0.749536,-0.185048 -2.319993,-0.177764 -1.5704581,0.0073 -2.5341471,0.09171 -2.1415331,0.188221 1.5283261,0.375667 1.6061501,0.680912 1.6061501,6.2956318 v 5.39565923 L -15.149106,-7.0058672 c -3.395503,-3.3913468 -6.286575,-6.0530298 -6.424597,-5.9150068 z m 200.270923,0.01324 c -2.97843,-0.0037 -3.161,0.137832 -3.29944,0.653892 -0.38731,1.443875 -0.25653,1.685206 0.59185,1.090983 0.51344,-0.35963 1.5836,-0.5556 3.03384,-0.5556 h 2.24052 v 6.6267618 c 0,3.8852722 -0.15283,6.9121172 -0.36947,7.3169032 -0.34719,0.648748 -0.23419,0.689687 1.87384,0.684565 1.55291,-0.0038 2.07854,-0.109614 1.70793,-0.34368 -0.43908,-0.2773 -0.55744,-1.60045297 -0.65807,-7.3552432 l -0.1227,-7.0164458 2.40086,0.152668 c 1.96869,0.125354 2.52114,0.30079 3.0673,0.975262 l 0.66644,0.8225941 v -1.4527851 -1.452784 l -7.12031,-0.103173 c -1.71589,-0.02496 -3.01978,-0.0427 -4.01259,-0.04392 z m -178.30975793,0.02091 c -2.55987727,-0.0031 -4.36687017,0.05019 -4.36671667,0.142211 1.998e-4,0.122693 -0.098942,0.765152 -0.2209848,1.427689 -0.2081284,1.129843 -0.1885155,1.161241 0.317882,0.50471 0.4233666,-0.548884 1.0874095,-0.731082 3.07705727,-0.843508 l 2.53749463,-0.143604 v 6.9293078 c 0,4.91322823 -0.1243196,7.0536262 -0.4280281,7.3573342 -0.33312613,0.333123 0.079037,0.428028 1.8557163,0.428028 1.7766868,0 2.1888426,-0.0949 1.8557164,-0.428028 C 4.7120619,2.183879 4.5875711,0.05241503 4.5875711,-4.8294862 v -6.8888748 h 1.7616068 c 2.1664456,0 3.4784626,0.467751 3.6988831,1.318242 0.09192,0.354685 0.186364,-0.03103 0.209135,-0.85745 l 0.04113,-1.502976 -7.1391375,-0.103173 c -0.9815892,-0.01424 -1.9184311,-0.02195 -2.77172463,-0.023 z m -82.86169007,0.0976 c -5.439011,0 -7.221258,0.108552 -7.325269,0.446153 -0.0756,0.245384 -0.232699,0.882216 -0.349252,1.41514 l -0.211922,0.9689881 0.879755,-0.8797571 c 0.758299,-0.758301 1.206483,-0.879758 3.248552,-0.879758 h 2.368788 l -0.121992,6.9732258 c -0.100071,5.71642523 -0.218494,7.0341422 -0.657379,7.3113242 -0.367987,0.23241 0.226163,0.339901 1.899635,0.34368 2.213381,0.005 2.383729,-0.04571 1.873841,-0.555602 -0.470377,-0.470381 -0.561178,-1.65095397 -0.561178,-7.3169032 v -6.7557248 l 1.873841,0.0021 c 1.030613,0.0012 2.315532,0.23286 2.855377,0.51447 0.813939,0.424593 0.981535,0.429397 0.981535,0.02719 0,-0.266763 0.09765,-0.739337 0.216802,-1.049853 0.193134,-0.503332 -0.563412,-0.564676 -6.971134,-0.564676 z m 56.366501,0 -5.264601,0.0488 c -2.89553,0.02673 -4.894272,0.119191 -4.442006,0.205649 1.357318,0.259478 1.576921,1.561232 1.423506,8.425313 -0.112838,5.04843403 -0.248647,6.427242 -0.658771,6.68671 -0.327669,0.2073 1.263257,0.329018 4.349288,0.332526 4.746703,0.0053 4.871326,-0.01413 5.08126,-0.797499 0.118377,-0.441691 0.207693,-1.12430497 0.197981,-1.51691897 -0.01617,-0.650308 -0.04717,-0.642213 -0.34298,0.09411 C -26.181299,1.728155 -27.705764,2.310299 -29.423198,2.085884 -31.5966,1.801885 -31.81848,1.42666 -31.81848,-1.963647 v -3.0073472 l 2.2217,0.106656 c 1.959485,0.09372 2.275293,0.211308 2.672037,0.9982682 0.431594,0.856085 0.449525,0.830733 0.454519,-0.6246142 l 0.0056,-1.516918 h -2.676916 -2.676915 V -8.8790129 -11.75112 l 2.400161,0.105961 c 2.150781,0.09457 2.446559,0.197967 2.849798,0.99757 0.431762,0.8561401 0.450225,0.8308251 0.455219,-0.624614 z m 48.541402,0 -5.443062,0.04252 c -2.993683,0.02323 -4.961217,0.144686 -4.372295,0.27048 l 1.070766,0.228653 0.0969,7.0896438 c 0.06737,4.92747423 -0.0278,7.2391472 -0.311607,7.5811072 h 7.14e-4 c -0.343577,0.413951 0.36229,0.492163 4.453142,0.492163 H 22.7906 V 2.052417 c 0,-0.474714 0.09082,-1.15732697 0.201465,-1.51691897 0.110649,-0.359596 -0.05166,-0.218975 -0.360406,0.312307 C 21.9654,1.99432 20.246906,2.429972 18.250302,1.959003 L 16.901386,1.641121 16.79891,-1.647862 16.696434,-4.9368422 H 18.8303 c 1.173624,0 2.232822,0.160615 2.354151,0.356922 0.421036,0.6812532 0.892287,0.3516682 0.893001,-0.624614 l 7.14e-4,-0.981535 -2.677615,0.117113 -2.677626,0.117813 v -2.8839567 -2.8832621 h 2.115738 c 1.405027,0 2.296333,0.179896 2.65182,0.535383 0.769863,0.769864 0.943195,0.671429 0.943195,-0.535383 z m 150.621105,0 -5.2646,0.03555 c -2.89553,0.01957 -4.87173,0.14489 -4.39181,0.278846 1.29912,0.362605 1.54414,1.922412 1.37262,8.725766 -0.11858,4.70344803 -0.26226,6.076231 -0.66296,6.329792 -0.32095,0.203096 1.30194,0.325531 4.35417,0.329039 4.7467,0.0053 4.87133,-0.01413 5.08126,-0.797499 0.11837,-0.441691 0.20769,-1.12430497 0.19798,-1.51691897 -0.0162,-0.650308 -0.0472,-0.642213 -0.34298,0.09411 C 172.98121,1.72815 171.45675,2.310294 169.73931,2.085879 167.56591,1.80188 167.34403,1.426655 167.34403,-1.963652 v -3.0073472 l 2.2217,0.106656 c 1.95949,0.09372 2.27529,0.211308 2.67204,0.9982682 0.42778,0.848557 0.45011,0.813558 0.45591,-0.7138442 l 0.006,-1.606149 -2.67762,0.117113 -2.6776,0.117813 v -2.8999907 -2.8999921 l 2.40016,0.105961 c 2.15078,0.09457 2.44657,0.197967 2.8498,0.99757 0.43176,0.8561401 0.45009,0.8308251 0.45522,-0.624614 z m -73.25685,0.03764 c -0.760854,-0.0081 -1.74068,-0.0045 -2.996892,0.0049 -3.112842,0.02323 -5.178019,0.144686 -4.589097,0.27048 l 1.070766,0.228654 0.0969,7.0896438 c 0.06736,4.92747423 -0.0278,7.2391472 -0.311607,7.5811072 -0.340329,0.410071 1.25e-4,0.490047 2.044632,0.48101 1.84059,-0.0081 2.297211,-0.10137 1.828529,-0.374351 -0.528955,-0.308092 -0.624613,-0.910369 -0.624613,-3.932417 v -3.5685222 l 2.2217,0.106656 c 1.959482,0.09372 2.275292,0.211308 2.672042,0.9982682 0.43159,0.856085 0.44939,0.830733 0.45451,-0.6246142 l 0.006,-1.516918 h -2.676912 -2.676915 v -2.8553767 -2.8553771 h 2.294198 c 1.610019,0 2.461829,0.167619 2.855379,0.561177 0.48375,0.48376 0.56117,0.487163 0.56117,0.02858 0,-0.292428 0.0977,-0.785346 0.21681,-1.095862 0.14426,-0.375936 -0.16361,-0.50286 -2.446172,-0.527018 z m 7.40473,0.04043 c -1.96307,0.0037 -3.08737,0.108814 -2.49845,0.23423 l 1.07076,0.227956 0.1945,5.5301998 c 0.24986,7.10427323 0.76873,8.3928582 3.81739,9.4807432 3.50668,1.251315 7.41193,0.126611 8.80943,-2.53749097 0.6278,-1.196824 0.76908,-2.25935303 0.92018,-6.93070323 0.17846,-5.5170318 0.17849,-5.5172028 1.07077,-5.7644308 0.50665,-0.140383 -0.41892,-0.24165 -2.14153,-0.23423 -1.66861,0.0072 -2.684,0.08062 -2.25656,0.163821 1.50089,0.292165 1.62694,0.857702 1.47997,6.6163028 -0.0877,3.4382772 -0.30331,5.74457923 -0.58418,6.24892423 -0.9541,1.71326897 -4.06035,2.41497797 -6.07604,1.37261897 -1.77744,-0.91914597 -2.02163,-1.90946197 -2.02163,-8.1862042 v -5.7302718 l 0.89231,-0.249567 c 0.49077,-0.136969 -0.71385,-0.245541 -2.67692,-0.241898 z m -178.817952,0.0063 c -1.963071,0.0072 -3.167683,0.08725 -2.676915,0.178461 0.490768,0.09121 1.010193,0.35092 1.154421,0.576512 0.144218,0.225593 0.265736,2.4978971 0.26978,5.0498898 0.0041,2.551992 0.173685,5.2372352 0.376442,5.96729023 0.515713,1.856912 1.8936,3.35854797 3.466049,3.77626397 4.276069,1.13593 7.770186,-0.147644 9.03459,-3.31895697 0.234805,-0.58892203 0.526396,-3.47297703 0.647617,-6.40926023 0.219275,-5.3112838 0.224872,-5.3399908 1.112594,-5.5859698 0.506687,-0.140398 -0.418794,-0.24165 -2.141532,-0.23423 -1.668611,0.0072 -2.66351,0.08364 -2.211243,0.170095 1.293878,0.247351 1.574354,1.607219 1.422109,6.8839948 -0.152598,5.28891023 -0.56697,6.6656732 -2.234946,7.4256532 -1.462263,0.666252 -3.886217,0.530315 -4.910466,-0.275362 -1.515152,-1.19181597 -1.72953,-2.27738397 -1.622878,-8.2133912 l 0.09899,-5.5085878 0.892305,-0.247476 c 0.490768,-0.136293 -0.713844,-0.242077 -2.676916,-0.234927 z m 219.150152,-0.03625 c -2.7483,0.02016 -4.51507,0.139109 -3.92615,0.264903 l 1.07077,0.228653 0.0969,7.0896428 c 0.0655,4.79057223 -0.0309,7.2435942 -0.29767,7.5650742 -0.32134,0.387193 0.0924,0.502618 2.2231,0.62113 7.34701,0.408647 10.58358,-0.576454 12.59893,-3.83621597 0.91713,-1.48341803 1.0819,-2.10763903 1.08262,-4.09972523 10e-4,-2.793791 -0.78607,-4.6372667 -2.55632,-5.9875058 -1.81838,-1.386949 -4.6114,-1.887628 -10.29218,-1.845956 z m 2.01953,0.944588 c 5.05882,0.04623 8.14332,2.8864281 8.15065,7.609689 0.004,2.725104 -1.3249,4.98635103 -3.46674,5.898976 -1.33552,0.569055 -4.9912,0.633412 -5.90037,0.103868 -0.55916,-0.325677 -0.62461,-1.05362997 -0.62461,-6.9488272 0,-6.5764868 10e-4,-6.5860028 0.80307,-6.6358208 0.35448,-0.02202 0.70075,-0.03096 1.038,-0.02789 z m -202.368533,-0.886032 c -2.021146,0.01088 -3.181346,0.08135 -2.739655,0.184735 l 1.070766,0.250264 0.0969,7.0896438 c 0.06549,4.79057223 -0.03087,7.2435942 -0.297666,7.5650742 -0.321344,0.387193 0.09245,0.502618 2.223097,0.62113 7.348258,0.408715 10.583217,-0.576843 12.599627,-3.83830797 0.944734,-1.52806903 1.082616,-2.08041303 1.082616,-4.33604623 0,-2.29738 -0.119694,-2.7547987 -1.074253,-4.1129677 -0.647368,-0.9210901 -1.772165,-1.8876831 -2.831674,-2.4329261 -1.656807,-0.852615 -2.107592,-0.909086 -7.848798,-0.980839 -0.837543,-0.01047 -1.607242,-0.01339 -2.280957,-0.0098 z m 3.282009,0.886729 c 5.415507,0.07708 8.495731,3.3571551 7.956157,8.622597 -0.209242,2.041873 -0.885834,3.24379003 -2.507517,4.454555 -0.728949,0.544228 -1.630887,0.756233 -3.546913,0.833745 -3.972071,0.160687 -3.818787,0.451789 -3.818787,-7.2478882 0,-6.5764878 0.0011,-6.5860028 0.803074,-6.6358218 0.381407,-0.02369 0.752952,-0.03233 1.113986,-0.02719 z m 96.997757,-1.221343 c -3.10641,0.04716 -5.401234,1.731883 -5.401234,4.1610701 0,1.9602807 0.924575,3.2048887 3.576192,4.8156599 3.337143,2.027207 3.980869,3.51574703 2.343696,5.418663 -0.724102,0.841636 -1.123833,0.996501 -2.506124,0.967594 -1.703193,-0.03564 -3.413764,-1.133081 -3.413764,-2.19033097 0,-0.271889 -0.160615,-0.395295 -0.356922,-0.273966 -0.196307,0.121325 -0.356922,0.773111 -0.356922,1.44859997 0,2.16605 -1.343612,1.40113 -4.80799,-2.737564 l -2.409224,-2.87838 1.067279,-1.1286272 c 2.080367,-2.199396 2.443428,-4.1680007 1.063796,-5.7672188 -1.064331,-1.233732 -2.849445,-1.598729 -7.584595,-1.550381 -2.159378,0.02205 -3.524605,0.114443 -3.033837,0.205649 0.490768,0.09121 1.010193,0.350921 1.154421,0.576513 0.411242,0.643273 0.324764,13.388521 -0.0962,14.175106 -0.346547,0.64752 -0.233884,0.69014 1.810405,0.69014 1.981442,0 2.128587,-0.05129 1.618698,-0.561177 C 29.72408,1.945069 29.572121,1.076474 29.572121,-0.85801097 V -3.509132 h 1.368432 c 1.256283,0 1.478467,0.160015 2.715955,1.956797 0.741342,1.07639103 1.976007,2.52488103 2.743839,3.218573 1.335981,1.206936 1.504055,1.258772 3.901048,1.209491 1.377629,-0.0283 2.618965,0.06669 2.758475,0.210531 0.440449,0.454119 4.943168,-0.04002 5.793709,-0.635768 3.16051,-2.21370497 2.708575,-6.23666 -0.942495,-8.3855802 -2.735904,-1.610272 -3.794389,-2.6754497 -3.794389,-3.8187857 0,-1.5212521 1.246868,-2.3815301 3.261097,-2.2495851 1.392821,0.09124 1.738418,0.278792 2.437807,1.319636 l 0.814924,1.2122801 v -1.6124231 -1.613121 l -1.788097,-0.237018 c -0.472576,-0.06269 -0.933023,-0.08969 -1.376799,-0.08296 z m -16.568294,1.244347 c 2.519063,0.02171 3.671697,1.280474 3.671697,3.9777301 0,0.9382567 -0.261381,1.6830767 -0.803075,2.2893197 -0.841872,0.942192 -2.039078,1.3085442 -3.39076,1.037305 -0.768096,-0.15413 -0.803074,-0.31588 -0.803074,-3.7058547 0,-3.4251931 0.02702,-3.5457881 0.803074,-3.5866491 0.180146,-0.0095 0.354199,-0.0133 0.522138,-0.01185 z m 28.901626,-1.276414 c -0.169413,0.05647 -1.699313,3.3466141 -3.399822,7.3120218 -1.700512,3.9654082 -3.371211,7.5343612 -3.712825,7.9310622 -0.610176,0.70859 -0.593515,0.72151 0.948074,0.72151 1.393289,0 1.548061,-0.08025 1.382374,-0.713844 -0.102633,-0.392471 0.1724,-1.59708297 0.610672,-2.67691497 l 0.7968,-1.96307203 h 2.793333 2.794032 l 1.001752,2.67273303 1.001752,2.67343197 1.857108,0.0036 1.856416,0.0042 -0.78565,-0.868602 c -0.432311,-0.477815 -2.14751,-4.093468 -3.811117,-8.0342342 -1.663603,-3.9407627 -3.16349,-7.1182278 -3.332899,-7.0617588 z m -0.556995,3.6507831 1.047067,2.6769147 c 0.575665,1.472304 1.047045,2.8776852 1.047759,3.1230692 0.0011,0.307495 -0.664161,0.446152 -2.140137,0.446152 -2.702653,0 -2.673707,0.275051 -0.51238,-4.9076779 z" />
    <path
       id="path925"
       style="fill:#ee1d23;fill-opacity:1;stroke-width:0.264583"
       d="m -119.30818,62.961568 c -4.5639,-1.316395 -9.40792,-5.986976 -11.64345,-11.226574 -1.10848,-2.598023 -0.9386,-2.754426 0.60474,-0.556781 2.5443,3.622951 6.26821,6.795422 9.51689,8.107623 2.77779,1.121997 6.08418,1.055944 6.25763,-0.125008 0.20705,-1.40966 -2.21548,-7.456456 -5.96231,-14.882332 -2.0926,-4.147345 -3.90878,-7.644912 -4.03596,-7.77237 -0.13228,-0.132561 -1.06061,-0.01931 -2.16908,0.264584 -2.88841,0.739791 -9.59464,0.67719 -12.52117,-0.11688 -4.73114,-1.283721 -9.09733,-4.297937 -10.97203,-7.57458 -0.82431,-1.440736 -1.7265,-4.435026 -1.50251,-4.986687 0.0713,-0.175602 0.13903,-0.09856 0.15052,0.171198 0.0477,1.11972 1.97768,4.179682 3.56128,5.646342 2.87655,2.664121 6.91156,4.179046 11.95741,4.489352 3.79193,0.233194 9.90243,-0.74364 9.90207,-1.582965 -8e-5,-0.171574 -0.24496,-0.956109 -0.5442,-1.743411 -0.58926,-1.550379 -1.42688,-4.994665 -1.67871,-6.902919 -0.13987,-1.059802 -0.0421,-0.92024 0.88952,1.270153 1.13187,2.66114 3.05758,6.292409 3.47315,6.549246 0.40801,0.252169 2.61587,-1.16749 4.28264,-2.75376 2.64795,-2.520056 3.85046,-5.881821 3.52569,-9.856498 -0.42156,-5.159299 -3.01522,-9.4898589 -6.73865,-11.2513226 -1.95547,-0.9250893 -4.73989,-1.1283476 -6.67092,-0.4869631 -2.77067,0.9202686 -5.16679,4.0697447 -6.86282,9.0205117 l -0.8048,2.349257 0.14789,-1.5875 c 0.81596,-8.7588761 5.91259,-13.7469287 12.87185,-12.5976315 6.15309,1.0161615 10.7523,6.5465045 11.59197,13.9388315 0.74685,6.575066 -1.98399,12.105149 -7.63575,15.462796 l -1.82757,1.085739 2.7333,4.350397 c 4.81678,7.666514 7.36625,13.334501 8.46517,18.819769 0.23868,1.191379 0.39493,2.441327 0.34723,2.777657 -0.20634,1.454817 -5.78476,2.544189 -8.70902,1.700726 z m -29.87459,-44.231877 c 0,-0.587253 3.9015,-8.172306 7.42091,-14.4272494 7.61993,-13.5427075 9.27091,-18.1809786 9.26798,-26.0374956 -0.002,-5.356356 -1.25063,-8.857982 -4.06613,-11.402925 -2.95716,-2.672982 -6.59656,-3.59225 -9.0765,-2.292609 -2.48673,1.303201 -4.87005,4.890591 -5.96255,8.97485 -0.58003,2.168441 -0.80171,6.604604 -0.43422,8.689435 l 0.18656,1.058333 -0.41571,-0.926042 c -0.8337,-1.857155 -1.21242,-4.500012 -1.06161,-7.408334 0.25739,-4.96382 1.56997,-8.301054 4.38146,-11.139875 2.30488,-2.327299 3.95223,-2.983287 7.09257,-2.824326 1.9102,0.09669 2.45112,0.247637 4.46689,1.246491 4.36073,2.160828 7.16348,5.96238 8.19479,11.115133 0.68316,3.413304 0.4185,8.964712 -0.61895,12.982654 -1.7132,6.6351186 -3.92663,10.6922585 -12.26783,22.4865937 -2.10977,2.9831773 -4.46925,6.3764593 -5.24329,7.5406263 -1.58367,2.381858 -1.86437,2.737887 -1.86437,2.36474 z m 27.68301,-40.86941 c -1.31743,-1.565668 -1.13966,-3.846727 0.40079,-5.142929 1.19405,-1.004731 1.68623,-0.881248 2.07901,0.5216 0.18351,0.655444 0.2687,1.675989 0.18931,2.267878 -0.14359,1.070599 -1.30462,3.154989 -1.75735,3.154989 -0.13052,0 -0.54082,-0.360692 -0.91176,-0.801538 z m -3.74622,-15.189705 c -1.21703,-1.217026 -0.56363,-2.794176 1.1576,-2.794176 0.70575,0 0.91649,0.153408 1.29173,0.940296 0.53603,1.124069 0.30482,1.650166 -0.95034,2.162322 -0.78088,0.318633 -0.8955,0.295048 -1.49899,-0.308442 z" />
  </g>
</svg>
