<?xml version="1.0" encoding="UTF-8" standalone="no"?>
<svg
   xmlns:dc="http://purl.org/dc/elements/1.1/"
   xmlns:cc="http://creativecommons.org/ns#"
   xmlns:rdf="http://www.w3.org/1999/02/22-rdf-syntax-ns#"
   xmlns:svg="http://www.w3.org/2000/svg"
   xmlns="http://www.w3.org/2000/svg"
   xmlns:sodipodi="http://sodipodi.sourceforge.net/DTD/sodipodi-0.dtd"
   xmlns:inkscape="http://www.inkscape.org/namespaces/inkscape"
   width="426.50833mm"
   height="56.004612mm"
   viewBox="0 0 426.50833 56.004612"
   version="1.1"
   id="svg8"
   inkscape:version="1.0.1 (3bc2e813f5, 2020-09-07)"
   sodipodi:docname="404.svg">
  <defs
     id="defs2" />
  <sodipodi:namedview
     id="base"
     pagecolor="#ffffff"
     bordercolor="#666666"
     borderopacity="1.0"
     inkscape:pageopacity="0.0"
     inkscape:pageshadow="2"
     inkscape:zoom="0.35"
     inkscape:cx="815.06152"
     inkscape:cy="609.48228"
     inkscape:document-units="mm"
     inkscape:current-layer="layer1"
     inkscape:document-rotation="0"
     showgrid="false"
     fit-margin-top="0"
     fit-margin-left="0"
     fit-margin-right="0"
     fit-margin-bottom="0"
     inkscape:window-width="1920"
     inkscape:window-height="1001"
     inkscape:window-x="-9"
     inkscape:window-y="-9"
     inkscape:window-maximized="1" />
  <metadata
     id="metadata5">
    <rdf:RDF>
      <cc:Work
         rdf:about="">
        <dc:format>image/svg+xml</dc:format>
        <dc:type
           rdf:resource="http://purl.org/dc/dcmitype/StillImage" />
        <dc:title></dc:title>
      </cc:Work>
    </rdf:RDF>
  </metadata>
  <g
     inkscape:label="Layer 1"
     inkscape:groupmode="layer"
     id="layer1"
     transform="translate(182.61778,-119.732)">
    <g
       id="g869"
       transform="translate(-80.715397,-95.147952)">
      <path
         style="fill:#767676;fill-opacity:1;stroke-width:0.264583"
         d="m -84.643076,264.22426 c 0,-0.50932 0.05445,-0.71768 0.121,-0.46302 0.06655,0.25467 0.06655,0.67138 0,0.92605 -0.06655,0.25466 -0.121,0.0463 -0.121,-0.46303 z"
         id="path873" />
      <path
         id="path871"
         style="fill:#333333;fill-opacity:1;stroke-width:0.264583"
         d="m -91.704914,270.23694 c -1.479251,-0.83785 -2.568838,-2.49022 -2.72692,-4.13541 -0.120096,-1.24987 -0.06883,-1.3944 0.804343,-2.26757 1.4463,-1.4463 3.435389,-1.26779 4.290084,0.38501 0.593883,1.14844 0.488587,2.01404 -0.360612,2.96445 -0.586075,0.65593 -0.975688,0.85085 -1.700781,0.85085 -0.821716,0 -0.908536,0.0598 -0.687139,0.47351 0.680819,1.27212 3.588242,1.69799 5.121771,0.75021 0.465003,-0.28739 1.18123,-1.13944 1.591617,-1.89346 0.622411,-1.14357 0.767603,-1.78093 0.875467,-3.8431 l 0.12931,-2.47217 h -8.767301 c -7.616765,0 -8.767305,-0.0521 -8.767305,-0.39687 0,-0.34114 0.84529,-0.3969 6.019274,-0.39708 l 6.019271,-2.1e-4 -1.122145,-0.55546 c -1.433524,-0.70958 -3.565568,-3.03697 -4.203903,-4.58908 l -0.494785,-1.20306 -3.108854,-9.9e-4 c -2.586598,-8.3e-4 -3.108858,-0.0677 -3.108858,-0.39787 0,-0.32946 0.51002,-0.39688 3.002657,-0.39688 h 3.002654 l -0.215566,-1.38906 c -0.142717,-0.91963 -0.09963,-1.9479 0.127509,-3.04271 l 0.343075,-1.65364 h -3.130163 c -2.605976,0 -3.130166,-0.0665 -3.130166,-0.39688 0,-0.33145 0.54108,-0.39687 3.282154,-0.39687 h 3.28215 l 0.721636,-1.25677 c 0.3969,-0.69123 1.421766,-2.11998 2.277481,-3.175 l 1.555845,-1.91823 h -5.559631 c -4.765505,0 -5.559635,-0.0567 -5.559635,-0.39688 0,-0.34095 0.83425,-0.39687 5.920731,-0.39687 4.854322,0 5.978182,-0.0692 6.239709,-0.38435 0.251869,-0.30348 0.203019,-0.84291 -0.232187,-2.56392 -0.303141,-1.19876 -0.551166,-2.45455 -0.551166,-2.79065 v -0.61108 h -5.688542 c -4.880095,0 -5.688545,-0.0564 -5.688545,-0.39688 0,-0.34011 0.7905,-0.39687 5.526984,-0.39687 h 5.526981 l 0.09771,-2.84427 c 0.08456,-2.46139 0.19738,-3.04787 0.838111,-4.3567 0.407221,-0.83183 1.26028,-2.08199 1.895688,-2.77812 0.974832,-1.068 1.230774,-1.22089 1.638555,-0.97883 1.449135,0.86023 3.569697,6.25256 3.625593,9.21944 l 0.03267,1.7343 203.663028,0.002 203.66302,0.002 v 14.55208 14.55208 l -204.0599,5.3e-4 -204.059898,5.3e-4 -0.03969,2.54306 c -0.03486,2.2334 -0.132233,2.72463 -0.799702,4.03424 -1.50205,2.94711 -4.731408,4.09318 -7.351687,2.60906 z m 24.320161,-10.39105 c 0.878734,-0.41699 1.46571,-1.31751 1.46571,-2.24866 0,-0.47552 -0.196152,-0.51672 -2.460625,-0.51672 -3.152918,0 -3.380798,-0.20207 -2.137643,-1.89559 l 0.93917,-1.27941 h -4.49943 -4.499427 l -0.185603,0.8599 c -0.436542,2.02249 -1.928583,3.97533 -3.787861,4.95771 l -0.963373,0.50901 7.632931,0.0117 c 6.359683,0.01 7.776924,-0.0566 8.496151,-0.39793 z m 384.317793,-2.76538 v -3.175 h -3.83646 c -2.38125,0 -3.83645,0.10036 -3.83645,0.26459 0,0.14552 -0.35719,0.26458 -0.79375,0.26458 -0.43657,0 -0.79375,-0.11906 -0.79375,-0.26458 0,-0.17613 -59.92813,-0.26459 -179.25521,-0.26459 -119.3270875,0 -179.255213,0.0885 -179.255213,0.26459 0,0.14552 -0.357187,0.26458 -0.79375,0.26458 -0.436562,0 -0.79375,-0.11906 -0.79375,-0.26458 0,-0.16735 -1.896181,-0.26459 -5.159375,-0.26459 h -5.159375 v 1.19063 1.19062 h 1.212673 c 1.578454,0 1.461709,0.62738 -0.138496,0.74428 -1.113931,0.0814 -1.130811,0.097 -0.970053,0.90082 0.20588,1.02941 0.609738,1.5186 1.615564,1.95697 0.651222,0.28381 34.676163,0.34783 189.375625,0.35633 l 188.58177,0.0104 z m 3.70417,0 v -3.175 h -1.19063 -1.19062 v 3.175 3.175 h 1.19062 1.19063 z m -405.386287,2.23426 c 0.09151,-0.0756 -0.420522,-3.77927 -0.66553,-4.81394 -0.131461,-0.55516 -0.281793,-0.59532 -2.228953,-0.59532 -1.148391,0 -2.087983,0.10521 -2.087983,0.2338 0,0.12859 0.47625,0.66406 1.058333,1.18994 1.164427,1.05199 1.325086,1.48668 0.549467,1.48668 -0.634388,0 -1.984244,-1.11502 -2.58877,-2.1384 -0.421787,-0.71403 -0.573142,-0.77202 -2.015176,-0.77202 -1.555015,0 -1.558671,0.002 -1.382927,0.70208 0.525561,2.094 3.270316,4.45396 5.624517,4.83601 1.087783,0.17652 3.466742,0.0945 3.737022,-0.12883 z m 3.384992,-1.97221 c 0.380757,-0.57536 0.752921,-1.58407 0.827031,-2.24158 l 0.134747,-1.19547 h -2.018785 c -1.363135,0 -2.018785,0.10038 -2.018785,0.30906 0,0.33361 0.477444,3.41154 0.681125,4.39101 0.119721,0.57571 0.155263,0.58314 0.913475,0.19105 0.433899,-0.22437 1.100436,-0.87871 1.481192,-1.45407 z m 15.445042,-2.24642 v -1.19063 h -1.405708 c -1.197583,0 -1.503134,0.10773 -2.063752,0.72761 -1.565545,1.73103 -1.614951,1.65364 1.055814,1.65364 h 2.413646 z m -25.56223,-2.72938 c -0.259251,-1.29626 0.388026,-2.99 1.609409,-4.21138 l 1.129027,-1.12903 h -2.051124 -2.051123 l -0.55871,1.38906 c -0.47535,1.18181 -1.090249,3.7017 -1.090249,4.46788 0,0.12566 0.711398,0.22847 1.580885,0.22847 h 1.580886 z m 5.71848,0.4302 c 0,-0.17314 -0.145225,-1.01791 -0.322722,-1.87727 l -0.322722,-1.56246 -0.920932,0.14945 c -1.207546,0.19595 -2.3762,1.38669 -2.577314,2.62602 l -0.158881,0.97906 h 2.151285 c 1.486592,0 2.151286,-0.0973 2.151286,-0.3148 z m 5.027083,0.16512 c 0,-0.33629 -0.636127,-1.35123 -1.289099,-2.05675 -0.820116,-0.88611 -1.909025,-1.49773 -2.666512,-1.49773 -0.627858,0 -0.647652,0.18094 -0.241196,2.20483 l 0.30111,1.49933 h 1.947848 c 1.071317,0 1.947849,-0.0674 1.947849,-0.14968 z m 12.000744,-0.73407 c 0.509434,-1.07355 1.228423,-3.76345 1.228423,-4.59579 v -0.60587 h -7.357163 -7.357161 l 1.400287,1.44572 c 1.109959,1.14596 1.492346,1.77683 1.844291,3.0427 l 0.444003,1.59699 h 4.688975 4.688975 z m 2.815923,0.49755 c 0,-0.21242 0.456671,-0.80875 1.014828,-1.32517 0.558154,-0.51642 1.173586,-1.2356 1.367623,-1.59816 0.587769,-1.09826 0.792549,-0.75586 0.792549,1.32516 v 1.98437 h 5.159375 5.159375 v -3.0427 -3.04271 h -5.235638 -5.235639 l -1.00035,1.19674 c -0.550193,0.6582 -1.717077,2.02742 -2.593075,3.04271 l -1.592723,1.84596 h 1.081836 c 0.77197,0 1.081839,-0.11062 1.081839,-0.3862 z m 373.591673,-1.59817 v -1.98438 H 128.41742 -50.837793 v 1.98438 1.98437 H 128.41742 307.67263 Z m 9.26041,-1.05833 v -3.04271 h -3.83646 -3.83645 v 3.04271 3.0427 h 3.83645 3.83646 z m 3.70417,0 v -3.04271 h -1.19063 -1.19062 v 3.04271 3.0427 h 1.19062 1.19063 z m -408.298818,-5.88698 c -0.287014,-1.12779 -0.617324,-2.14892 -0.734022,-2.26918 -0.215128,-0.22169 -2.362556,2.09817 -3.272391,3.53516 l -0.496737,0.78454 h 2.512497 2.512498 z m 19.625898,1.85052 c 0,-0.11 0.338945,-0.35002 0.753208,-0.5334 0.777327,-0.34407 1.363459,-1.2853 1.363459,-2.18947 0,-0.47583 -0.196316,-0.51672 -2.481146,-0.51672 -3.059076,0 -3.359185,-0.23006 -2.246501,-1.72213 l 0.78749,-1.05599 -8.533924,-0.0699 c -6.613046,-0.0541 -8.609411,0.006 -8.869289,0.26548 -0.270764,0.27076 -0.206506,0.81937 0.333586,2.84801 0.367922,1.38195 0.717526,2.66147 0.776897,2.84337 0.08355,0.25599 2.142733,0.33073 9.112083,0.33073 4.952276,0 9.004137,-0.09 9.004137,-0.2 z m 4.960938,0.006 c -0.691224,-0.0545 -1.822318,-0.0545 -2.513542,0 -0.691224,0.0545 -0.125677,0.0991 1.256771,0.0991 1.382448,0 1.947995,-0.0446 1.256771,-0.0991 z m 10.649479,-2.98051 v -3.175 h -5.159375 -5.159375 v 1.05833 1.05833 h 1.212673 c 1.578454,0 1.461709,0.62738 -0.138496,0.74427 -1.120011,0.0818 -1.131711,0.093 -0.971908,0.92605 0.171125,0.89211 1.24473,2.03385 1.912475,2.03385 0.218755,0 0.324151,0.11906 0.234214,0.26458 -0.106338,0.17206 1.276073,0.26459 3.953135,0.26459 h 4.116657 z m 369.358333,0 v -3.175 h -3.83646 -3.83645 v 3.175 3.175 h 3.83645 3.83646 z m 3.70417,0 v -3.175 h -1.19063 -1.19062 v 3.175 3.175 h 1.19062 1.19063 z m -12.96458,-1.19063 V 239.8826 H 128.41742 -50.837793 v 1.98437 1.98438 H 128.41742 307.67263 Z m -373.591673,-0.92604 v -1.05833 h -1.541381 c -1.582462,0 -1.758312,0.0991 -2.935343,1.65364 -0.327654,0.43276 -0.192796,0.46302 2.063078,0.46302 h 2.413646 z m -3.113752,-2.44739 c 0.534472,-0.82282 1.223039,-2.99244 1.427496,-4.49792 l 0.170683,-1.25677 H -75.1518 c -7.117532,0 -7.728561,0.036 -7.863603,0.46302 -0.39971,1.264 -1.100807,2.65317 -1.955345,3.87435 -0.520022,0.74314 -1.037058,1.5 -1.148968,1.6819 -0.161145,0.26193 1.554766,0.33073 8.248378,0.33073 h 8.451852 z m 3.113752,0.0768 c 0,-0.28518 0.456671,-0.94104 1.014828,-1.45746 0.558154,-0.51643 1.173586,-1.2356 1.367623,-1.59816 0.595149,-1.11205 0.792549,-0.74904 0.792549,1.45745 v 2.11667 h 5.159375 c 3.263194,0 5.159375,-0.0972 5.159375,-0.26459 0,-0.14552 0.357188,-0.26458 0.79375,-0.26458 0.436563,0 0.79375,0.11906 0.79375,0.26458 0,0.17613 59.9281255,0.26459 179.255213,0.26459 119.32708,0 179.25521,-0.0885 179.25521,-0.26459 0,-0.14552 0.35718,-0.26458 0.79375,-0.26458 0.43656,0 0.79375,0.11906 0.79375,0.26458 0,0.16423 1.4552,0.26459 3.83645,0.26459 h 3.83646 v -3.175 -3.175 l -189.90469,0.002 -189.904685,0.002 -2.718705,3.17287 -2.718704,3.1729 h 1.19735 c 1.012754,0 1.197351,-0.0799 1.197351,-0.5185 z m 386.556253,-2.6565 v -3.175 h -1.19063 -1.19062 v 3.175 3.175 h 1.19062 1.19063 z M -87.124617,235.4349 c 1.928602,-2.85433 1.951307,-2.69557 -0.385513,-2.69557 h -2.030538 l 0.16018,1.25677 c 0.231856,1.81914 0.696916,3.27878 0.987452,3.09922 0.138359,-0.0855 0.709147,-0.8327 1.268419,-1.66042 z m 2.204319,-4.21693 c 0.346262,-0.83915 0.441153,-4.61374 0.143008,-5.68854 -0.273273,-0.98513 -0.69519,-0.91757 -2.124021,0.34014 -1.323698,1.16517 -2.427372,3.18786 -2.701785,4.95153 l -0.17496,1.12448 h 2.278763 c 2.236752,0 2.284299,-0.0134 2.578995,-0.72761 z m 200.240818,-2.71353 c 1e-5,-0.0736 0.33897,-0.28388 0.75323,-0.46726 0.77733,-0.34407 1.36346,-1.2853 1.36346,-2.18947 0,-0.47553 -0.19615,-0.51672 -2.46063,-0.51672 -3.12683,0 -3.37504,-0.20712 -2.19228,-1.82944 1.77484,-2.43444 3.06541,-5.72559 3.06541,-7.81729 v -0.80431 h 2.38125 c 1.30969,0 2.38125,0.062 2.38125,0.13776 0,0.0758 -1.72113,2.13242 -3.82473,4.57034 -2.10359,2.43792 -3.89656,4.54882 -3.98436,4.69089 -0.0994,0.16075 0.74553,0.2583 2.23722,0.2583 h 2.39687 v -1.97371 c 0,-1.94897 0.0127,-1.98548 1.01483,-2.91266 0.55815,-0.51642 1.17358,-1.2356 1.36762,-1.59816 0.19404,-0.36257 0.45174,-0.65922 0.57267,-0.65922 0.12093,0 0.21988,1.60735 0.21988,3.57188 v 3.57187 h 1.21267 c 1.57846,0 1.46171,0.62738 -0.1385,0.74427 -1.12001,0.0818 -1.13171,0.093 -0.9719,0.92605 0.17423,0.90831 1.24836,2.03385 1.94095,2.03385 0.23443,0 0.34615,0.0801 0.24828,0.17794 -0.20472,0.20473 -7.58324,0.28752 -7.58319,0.0851 z m 10.82915,-0.33417 c -1.2291,-0.82829 -2.30002,-2.66925 -2.65208,-4.55907 -0.58169,-3.12239 0.66675,-6.81045 2.73154,-8.06936 1.22596,-0.74747 3.29055,-0.71471 4.45603,0.0707 2.90637,1.9586 3.7278,7.36867 1.63321,10.75658 -1.04739,1.69412 -2.19639,2.40145 -3.90095,2.40145 -0.99321,0 -1.62521,-0.1673 -2.26775,-0.60031 z m 3.5645,-0.80816 c 0.51542,-0.69332 0.55533,-1.08647 0.55533,-5.4707 0,-4.39167 -0.0392,-4.7762 -0.55772,-5.4707 -0.74919,-1.00346 -1.83552,-1.00884 -2.5792,-0.0128 -0.47225,0.63253 -0.56298,1.2091 -0.65499,4.16207 -0.13118,4.21016 0.0842,6.10448 0.79723,7.01091 0.69616,0.88502 1.68466,0.79635 2.43935,-0.21881 z m 7.30218,1.14233 c 1e-5,-0.0736 0.33897,-0.28388 0.75323,-0.46726 0.77733,-0.34407 1.36346,-1.2853 1.36346,-2.18947 0,-0.47553 -0.19615,-0.51672 -2.46062,-0.51672 -3.12684,0 -3.37505,-0.20712 -2.19228,-1.82944 1.77484,-2.43444 3.0654,-5.72559 3.0654,-7.81729 v -0.80431 h 2.38125 c 1.30969,0 2.38125,0.062 2.38125,0.13776 0,0.0758 -1.72112,2.13242 -3.82472,4.57034 -2.1036,2.43792 -3.89656,4.54882 -3.98437,4.69089 -0.0994,0.16075 0.74553,0.2583 2.23723,0.2583 h 2.39686 v -1.97371 c 0,-1.94897 0.0127,-1.98548 1.01483,-2.91266 0.55815,-0.51642 1.17359,-1.2356 1.36762,-1.59816 0.19404,-0.36257 0.45175,-0.65922 0.57268,-0.65922 0.12093,0 0.21987,1.60735 0.21987,3.57188 v 3.57187 h 1.21267 c 1.57846,0 1.46171,0.62738 -0.13849,0.74427 -1.12001,0.0818 -1.13171,0.093 -0.97191,0.92605 0.17423,0.90831 1.24837,2.03385 1.94096,2.03385 0.23442,0 0.34614,0.0801 0.24828,0.17794 -0.20473,0.20473 -7.58324,0.28752 -7.5832,0.0851 z" />
    </g>
  </g>
</svg>
