<?xml version="1.0" encoding="UTF-8" standalone="no"?>
<svg
   xmlns:dc="http://purl.org/dc/elements/1.1/"
   xmlns:cc="http://creativecommons.org/ns#"
   xmlns:rdf="http://www.w3.org/1999/02/22-rdf-syntax-ns#"
   xmlns:svg="http://www.w3.org/2000/svg"
   xmlns="http://www.w3.org/2000/svg"
   xmlns:sodipodi="http://sodipodi.sourceforge.net/DTD/sodipodi-0.dtd"
   xmlns:inkscape="http://www.inkscape.org/namespaces/inkscape"
   width="312.21274mm"
   height="418.30811mm"
   viewBox="0 0 312.21273 418.3081"
   version="1.1"
   id="svg8"
   inkscape:version="1.0.1 (3bc2e813f5, 2020-09-07)"
   sodipodi:docname="ntnu.svg">
  <defs
     id="defs2" />
  <sodipodi:namedview
     id="base"
     pagecolor="#ffffff"
     bordercolor="#666666"
     borderopacity="1.0"
     inkscape:pageopacity="0.0"
     inkscape:pageshadow="2"
     inkscape:zoom="0.35"
     inkscape:cx="287.05568"
     inkscape:cy="954.48727"
     inkscape:document-units="mm"
     inkscape:current-layer="layer1"
     inkscape:document-rotation="0"
     showgrid="false"
     fit-margin-top="0"
     fit-margin-left="0"
     fit-margin-right="0"
     fit-margin-bottom="0"
     inkscape:window-width="2400"
     inkscape:window-height="1271"
     inkscape:window-x="2391"
     inkscape:window-y="-9"
     inkscape:window-maximized="1" />
  <metadata
     id="metadata5">
    <rdf:RDF>
      <cc:Work
         rdf:about="">
        <dc:format>image/svg+xml</dc:format>
        <dc:type
           rdf:resource="http://purl.org/dc/dcmitype/StillImage" />
        <dc:title></dc:title>
      </cc:Work>
    </rdf:RDF>
  </metadata>
  <g
     inkscape:label="Layer 1"
     inkscape:groupmode="layer"
     id="layer1"
     transform="translate(-23.810117,88.204735)">
    <path
       id="path873"
       style="fill:#00509e;stroke-width:0.999999;opacity:1;fill-opacity:1"
       d="m 590.00781,0 c -152.90956,0 -305.81888,0.33760221 -315,1.0117188 -60.04544,4.4088566 -114.17117,25.1257842 -162,62.0078122 -12.23161,9.432076 -40.564008,37.764489 -49.996091,49.996089 -36.882055,47.82879 -57.5989523,101.95467 -62.0078128,162 -1.34777948,18.37033 -1.33404424,611.54767 0.015625,630.26563 2.5958967,36.00121 11.2217758,70.32912 25.6914068,102.23435 34.641399,76.3836 102.416142,135.8076 182.298832,159.8399 19.70735,5.9289 43.26802,10.4775 61.99804,11.9687 h 0.002 c 2.48436,0.1969 148.27869,0.311 323.99804,0.2539 l 319.5,-0.1035 13.5,-2.2207 c 65.26379,-10.7365 120.03519,-38.3582 165.04299,-83.2324 33.2038,-33.1054 56.6293,-70.9673 71.4629,-115.50588 8.3224,-24.98819 12.5445,-46.33181 14.4843,-73.23437 1.3507,-18.71796 1.3645,-611.8953 0.016,-630.26563 -4.409,-60.04533 -25.1277,-114.17121 -62.0098,-162 -9.4321,-12.2316 -37.7625,-40.564013 -49.9941,-49.996089 C 1019.1809,26.137503 965.05324,5.4205754 905.00781,1.0117188 895.82668,0.33760221 742.91737,0 590.00781,0 Z m -295,295.01562 h 295 295 v 295.5 295.5 h -295 -295 v -295.5 z m 268.00273,533.88386 c -33.20625,-3.31986 -71.11057,-16.13911 -100.9042,-34.12588 -21.38351,-12.90947 -47.08804,-35.45806 -62.4228,-54.75859 -27.80859,-35.00036 -44.93348,-74.88672 -51.30629,-119.5 -2.05924,-14.41589 -2.32792,-48.67799 -0.48231,-61.5 6.79582,-47.21168 23.08457,-86.05659 50.94834,-121.49999 7.09088,-9.01976 29.64748,-31.57637 38.66725,-38.66724 80.00349,-62.89464 188.87554,-69.87619 275.51218,-17.66756 16.89354,10.18034 29.46365,20.18804 45.5605,36.27314 27.74658,27.72629 45.73289,56.36831 58.31883,92.86895 8.73615,25.33575 12.38839,48.13663 12.44485,77.6927 0.0631,33.0809 -4.98606,60.51023 -16.42356,89.2189 -26.85539,67.40834 -81.79755,118.83433 -150.91279,141.25464 -30.19877,9.79619 -66.72658,13.63748 -99,10.41093 z"
       transform="matrix(0.26458333,0,0,0.26458333,23.810117,-88.204735)" />
    <path
       id="path847"
       style="fill:#000000;stroke-width:0.264583"
       d="m 92.133422,328.27653 c -0.68698,-0.98303 -10.95265,-15.91273 -22.81259,-33.17711 l -21.56355,-31.38979 -0.0681,31.01512 c -0.0375,17.05832 -0.0114,31.16394 0.0578,31.34585 0.0948,0.24899 1.40303,0.33072 5.29362,0.33072 h 5.16768 v 1.19063 1.19062 h -11.37708 -11.37708 v -1.19062 -1.19063 h 4.63021 4.63021 V 293.99611 261.5909 l -4.56407,-0.0724 -4.56406,-0.0724 -0.0814,-1.12448 -0.0814,-1.12448 h 11.20879 11.20879 l 16.78611,24.38858 c 9.23237,13.41371 16.87359,24.51629 16.98051,24.67239 0.10691,0.15611 0.19621,-10.28041 0.19843,-23.19224 l 0.004,-23.47605 -5.09323,-0.0719 -5.09323,-0.0719 -0.0814,-1.12448 -0.0814,-1.12448 h 10.99543 10.995418 v 1.19062 1.19063 h -4.232338 -4.23233 l -0.0671,34.04608 -0.0671,34.04608 -0.73533,0.19664 c -0.68318,0.18269 -0.82392,0.0699 -1.98437,-1.59068 z M 212.36429,297.03041 c -12.4949,-18.18892 -22.76404,-33.07075 -22.82031,-33.07075 -0.0563,0 -0.10231,14.04937 -0.10231,31.22083 v 31.22083 h 5.29166 5.29167 v 1.19063 1.19062 h -11.37708 -11.37709 v -1.19062 -1.19063 h 4.45593 4.45592 l 0.17359,-5.35781 c 0.22512,-6.94838 0.22521,-48.06331 1.1e-4,-54.50416 l -0.17338,-4.96094 h -4.45608 -4.45609 v -1.19063 -1.19062 l 11.17865,0.0114 11.17865,0.0114 16.80104,24.48423 c 9.24057,13.46631 16.89034,24.54103 16.99948,24.61045 0.10914,0.0695 0.19843,-10.41778 0.19843,-23.30497 v -23.43124 h -5.15937 -5.15938 v -1.19062 -1.19063 h 10.98021 10.98021 v 1.19063 1.19062 h -4.19126 -4.19125 l -0.17437,5.5989 c -0.0959,3.07944 -0.17437,18.38193 -0.17437,34.00555 v 28.40659 l -0.67868,0.25805 c -0.37328,0.1419 -0.7007,0.25704 -0.72761,0.25585 -0.0269,0 -10.27202,-14.884 -22.76692,-33.07291 z m 68.49092,32.1189 c -6.63372,-0.83812 -10.96541,-2.4634 -13.58847,-5.09852 -2.5655,-2.5773 -3.73128,-5.54294 -4.26133,-10.84053 -0.16741,-1.67307 -0.27416,-12.25894 -0.27416,-27.18594 v -24.44591 h -4.23333 -4.23333 v -1.19063 -1.19062 h 14.55208 14.55208 v 1.19062 1.19063 h -4.73992 -4.73993 l -0.17494,1.91823 c -0.0962,1.05502 -0.12534,12.81245 -0.0647,26.1276 0.11981,26.31228 0.11488,26.22286 1.62655,29.52478 0.86334,1.88579 2.9648,4.07326 4.90813,5.10905 3.41351,1.81938 9.4826,2.65342 15.69714,2.1572 9.40001,-0.7506 13.78254,-3.52457 15.69725,-9.93582 0.43942,-1.47132 0.48051,-3.53785 0.56163,-28.2384 l 0.0875,-26.65089 -4.97049,-0.072 -4.97052,-0.072 -0.0814,-1.12448 -0.0814,-1.12448 h 11.01064 11.01063 l -0.0814,1.12448 -0.0813,1.12448 -4.29948,0.0727 -4.29948,0.0727 -0.004,23.73981 c -0.004,23.7607 -0.14631,28.50841 -0.95189,31.7999 -1.73127,7.07396 -7.18476,10.93439 -17.16789,12.15295 -3.23577,0.39497 -12.83521,0.31605 -16.40416,-0.13486 z m -156.23646,-1.55736 v -1.19063 h 5.29272 5.29272 l -0.0672,-32.21302 -0.0672,-32.21302 -4.49792,0.0772 c -6.52195,0.11189 -8.67059,0.71731 -11.31619,3.18854 -3.4188,3.19347 -5.90303,8.66675 -6.4137,14.13066 l -0.19165,2.05052 h -1.42413 -1.42412 v -11.11254 -11.1125 H 140.62604 171.45 v 11.1125 11.1125 h -1.42438 -1.42439 l -0.18329,-1.78594 c -0.55241,-5.38279 -2.61695,-10.48755 -5.56979,-13.7718 -1.52739,-1.69884 -4.15039,-3.0548 -6.76106,-3.49514 -1.04835,-0.17683 -3.70579,-0.33782 -5.90544,-0.35775 l -3.99936,-0.0362 v 32.14688 32.14687 l 5.35781,0.0716 5.35782,0.0716 v 1.18515 1.18514 h -16.13959 -16.13958 z" />
  </g>
</svg>
