<?xml version="1.0" encoding="UTF-8" standalone="no"?>
<svg
   xmlns:dc="http://purl.org/dc/elements/1.1/"
   xmlns:cc="http://creativecommons.org/ns#"
   xmlns:rdf="http://www.w3.org/1999/02/22-rdf-syntax-ns#"
   xmlns:svg="http://www.w3.org/2000/svg"
   xmlns="http://www.w3.org/2000/svg"
   xmlns:sodipodi="http://sodipodi.sourceforge.net/DTD/sodipodi-0.dtd"
   xmlns:inkscape="http://www.inkscape.org/namespaces/inkscape"
   version="1.1"
   x="0px"
   y="0px"
   viewBox="0 0 455.39998 455.4"
   xml:space="preserve"
   id="svg17"
   sodipodi:docname="vt-logo.svg"
   width="455.39999"
   height="455.39999"
   inkscape:version="1.0.1 (3bc2e813f5, 2020-09-07)"><metadata
   id="metadata23"><rdf:RDF><cc:Work
       rdf:about=""><dc:format>image/svg+xml</dc:format><dc:type
         rdf:resource="http://purl.org/dc/dcmitype/StillImage" /><dc:title></dc:title></cc:Work></rdf:RDF></metadata><defs
   id="defs21" /><sodipodi:namedview
   pagecolor="#ffffff"
   bordercolor="#666666"
   borderopacity="1"
   objecttolerance="10"
   gridtolerance="10"
   guidetolerance="10"
   inkscape:pageopacity="0"
   inkscape:pageshadow="2"
   inkscape:window-width="1920"
   inkscape:window-height="1001"
   id="namedview19"
   showgrid="false"
   fit-margin-top="0"
   fit-margin-left="0"
   fit-margin-right="0"
   fit-margin-bottom="0"
   inkscape:zoom="0.98588718"
   inkscape:cx="156.66697"
   inkscape:cy="238.6876"
   inkscape:window-x="-9"
   inkscape:window-y="-9"
   inkscape:window-maximized="1"
   inkscape:current-layer="svg17" />
<style
   type="text/css"
   id="style2">
	.st0{fill:#5EC0E2;}
	.st1{fill:#FFFFFF;}
	.st2{display:none;}
</style>
<g
   id="Sirkel"
   transform="translate(-192.8,-70.099991)">
	<circle
   class="st0"
   cx="420.5"
   cy="297.79999"
   r="227.7"
   id="circle4" />
</g>
<g
   id="vt"
   transform="translate(-192.8,-70.099991)">
	<g
   id="g9">
		<path
   class="st1"
   d="M 328.6,297.9 261.8,168.1 h 45.8 l 45,90.3 44.8,-90.3 h 43.9 l -67.9,129.8 z"
   id="path7" />
	</g>
	<g
   id="g13">
		<path
   class="st1"
   d="m 450.1,254 m 11.8,144.9 0.2,-51.2 h 89.1 V 320.8 H 462 v -56.2 h -41.6 v 55.9 H 286.2 v 25.3 l 134.3,0.2 v 52.9 c 0,14.4 1.4,26.3 6.8,33.9 6.2,8.7 13.6,14.3 18.6,16.7 19.2,9.6 36.5,11.8 65.5,10.5 17,-0.8 35.6,-6.6 46.7,-10.3 v -28.9 c -4.8,2.1 -9.9,4.1 -16.7,6.4 -37,12.6 -64,2.2 -64,2.2 -0.3,-0.2 -16.3,-4.5 -15.5,-30.5 z"
   id="path11" />
	</g>
</g>
<g
   id="Layer_3"
   class="st2"
   transform="translate(-192.8,-70.099991)">
</g>
</svg>
